<?xml version="1.0" encoding="UTF-8"?>
<svg xmlns="http://www.w3.org/2000/svg" viewBox="0 0 1024 1024" preserveAspectRatio="xMidYMid meet">
  <!-- Background -->
  <rect width="1024" height="1024" fill="#080807"/>
  
  <!-- Main logo paths -->
  <path fill="#0084FF" d="M251.5 392.5c-9.5.77-19.17 1.44-29 2-.15-.01-1.48-.34-2.6-1 10.95-2.14 21.95-2.47 33-1z"/>
  <path fill="#1fbdf7" d="M272.5 397.5c10.49 2.58 19.82 7.24 28 14-8.87-4.93-18.2-9.09-28-12.5-1.24-.69-1.24-1.19 0-1.5z"/>
  <path fill="#1299f8" d="M251.5 392.5c7.45.29 14.45 1.96 21 5-1.24.31-1.24.81 0 1.5 9.8 3.41 19.13 7.57 28 12.5 5.82 5.19 11.66 10.53 17.5 16 2.17 3.65 4.84 6.98 8 10 2.78 4.56 5.28 9.23 7.5 14-.9.71-1.24 1.71-1 3-1.43-.08-2.76.25-4 1-.79-.74-1.45-1.57-2-2.5.12-1.27.45-2.6 1-4-.95-.62-1.78-.45-2.5.5-1.11-3.15-2.44-4.15-5-3-.97-2.38-1.64-2.04-2 1-1.82-.83-3.65-1.66-5.5-2.5.33-.33.67-.67 1-1-1.17-.5-2-.33-2.5-2.5-1.33.67-2.67 1.33-4 2-2.84-2.26-5.17-2.26-7 0-1.46-2.94-3.13-3.28-5-1-.26-1.66.24-3.16 1.5-4.5-2.09-1.68-4.26-2.18-6.5-1.5-.25-1.12-.75-2.12-1.5-3-1.5 1.25-3.17 2.25-5 3-.75-.88-1.25-1.88-1.5-3-.41.46-.91.79-1.5 1-.78-1.23-1.28-2.56-1.5-4-.33 2-.67 4-1 6-1.07-1.44-2.23-2.78-3.5-4 .88-.75 1.88-1.25 3-1.5-.92-.37-1.75-.87-2.5-1.5-1.8 1.27-3.63 1.27-5.5 0-1.3.59-2.13 1.59-2.5 3-.69-2.06-1.85-3.72-3.5-5-.28 5.18-.94 5.18-1 0-1.89-.2-3.39.46-4.5 2-.9-1.2-2.07-2.04-3.5-2.5.33-.33.67-.67 1-1-1.12-1.04-2.46-1.71-4-2 4.71.23 5.54-.94 2.5-3.5-1.87 2.28-3.54 1.94-5-1-.67 2.67-1.33 2.67-2 0-.67 1.33-1.33 1.33-2 0-.22 3.44-1.22 3.78-3 1-1.87 1.17-3.37.67-4.5-1.5 2 0 4 0 6 0 1.66-.73 2.16-1.89 1.5-3.5-.67 1.33-1.67 2.33-3 3-2.57-.75-5.07-1.08-7.5-1-.67.67-1.33 1.33-2 2-4.22-.99-6.05-3.33-5.5-7-1.62 1.05-3.28 2.05-5 3-1.85-1.73-1.69-2.9.5-2.5-1.2-.9-2.03-2.07-2.5-3.5-1.72 1.05-2.72.39-3-2-1.05 1.02-2.22 1.18-3.5.5 2.73-.64 3.23-1.81 1.5-3.5-1.73 1.14-3.57 1.64-5.5 1.5.67-1 1.33-2 2-3-2.57-.74-4.07-1.9-4.5-3.5-1.77 1.66-1.27 2.83 1.5 3.5-2.97 3.29-4.47 2.46-4.5-2.5-.33 1-.67 2-1 3-2.48 1.96-5.15 3.63-8 5-.38-.56-.88-.89-1.5-1-.1-.09-1.83.25-2.5 1-.31-.81-.81-1.48-1.5-2-3.98 2-7.64 4.33-11 7-3.64 2.3-7.31 4.63-11 7 14.31-13.66 31.31-22.32 51-26 1.12.66 2.46.99 4 1 9.83-.56 19.5-1.23 29-2z"/>
  
  <!-- Additional paths -->
  <path fill="#23a6ed" d="M300.5 411.5c18.44 11.95 31.6 28.28 39.5 49 2.94 7.42 4.77 15.09 5.5 23 .16 1.37 0 2.71-.5 4-.82-5.99-2.32-11.66-4.5-17-.02-2.07-.35-4.07-1-6-1.24-4.75-3.24-9.08-6-13-2.22-4.77-4.72-9.44-7.5-14-3.16-3.02-5.83-6.35-8-10-5.84-5.47-11.68-10.81-17.5-16z"/>
  
  <!-- AURA text -->
  <path fill="#fafafa" d="M531.5 437.5h25c-.46 31.7.04 63.37 1.5 95 4.86 12.77 14.19 18.77 28 18 12.86.41 21.86-5.26 27-17 1.46-32 1.96-64 1.5-96h26c.17 28.67 0 57.33-.5 86-4.13 32.79-22.8 49.46-56 50-29.42-.09-46.75-15.09-52-44-.5-30.33-.67-60.67-.5-91z"/>
  <path fill="#fcfcfc" d="M666.5 437.5c23.38-.45 46.71.05 70 1.5 24 7.78 34.5 24.28 31.5 49.5-1.94 8.72-6.11 16.22-12.5 22.5-5.17 3.42-10.5 6.58-16 9.5 10.67 16.67 21.33 33.33 32 50-9.32 1.17-18.65 1.33-28 .5-10-15.67-20-31.33-30-47h-22v48h-25v-134z"/>
  <path fill="#fcfcfc" d="M834.5 437.5c10.36-.33 20.69 0 31 1 17 44 34 88 51 132h-27c-3.57-9.89-7.24-19.72-11-29.5h-56c-3.57 10.39-7.24 20.22-11 30h-27c17.36-44.24 34.02-88.74 50-133z"/>
  
  <!-- Additional styling -->
  <style>
    path { transition: fill 0.3s ease; }
  </style>
</svg>
