<?xml version="1.0" encoding="UTF-8"?>
<!DOCTYPE svg PUBLIC "-//W3C//DTD SVG 1.1//EN" "http://www.w3.org/Graphics/SVG/1.1/DTD/svg11.dtd">
<svg xmlns="http://www.w3.org/2000/svg" version="1.1" width="1024px" height="1024px" style="shape-rendering:geometricPrecision; text-rendering:geometricPrecision; image-rendering:optimizeQuality; fill-rule:evenodd; clip-rule:evenodd" xmlns:xlink="http://www.w3.org/1999/xlink">
<g><path style="opacity:1" fill="#000000" d="M 0,0 L 1024,0 L 1024,1024 L 0,1024 Z"/></g>
<g><path style="opacity:1" fill="#22a2e4" d="M 251.5,392.5 C 241.995,393.271 232.328,393.938 222.5,394.5C 220.955,394.489 219.622,394.156 218.5,393.5C 229.451,391.363 240.451,391.03 251.5,392.5 Z"/></g>
<g><path style="opacity:1" fill="#1fbdf7" d="M 272.5,397.5 C 282.989,400.078 292.322,404.744 300.5,411.5C 291.635,406.573 282.302,402.406 272.5,399C 271.262,398.31 271.262,397.81 272.5,397.5 Z"/></g>
<g><path style="opacity:1" fill="#1299f8" d="M 251.5,392.5 C 258.952,392.792 265.952,394.458 272.5,397.5C 271.262,397.81 271.262,398.31 272.5,399C 282.302,402.406 291.635,406.573 300.5,411.5C 306.323,416.693 312.156,422.026 318,427.5C 320.172,431.149 322.839,434.482 326,437.5C 328.78,442.062 331.28,446.728 333.5,451.5C 332.596,452.209 332.263,453.209 332.5,454.5C 331.07,454.421 329.736,454.754 328.5,455.5C 327.713,454.758 327.047,453.925 326.5,453C 326.616,451.732 326.949,450.398 327.5,449C 326.551,448.383 325.718,448.549 325,449.5C 324.89,446.354 323.557,445.354 321,446.5C 320.026,444.122 319.359,444.456 319,447.5C 317.184,446.671 315.351,445.837 313.5,445C 313.833,444.667 314.167,444.333 314.5,444C 313.333,443.5 312.5,442.667 312,441.5C 310.667,442.167 309.333,442.833 308,443.5C 305.163,441.243 302.83,441.243 301,443.5C 299.541,440.557 297.874,440.224 296,442.5C 295.735,440.837 296.235,439.337 297.5,438C 295.409,436.325 293.242,435.825 291,436.5C 290.751,435.376 290.251,434.376 289.5,433.5C 287.999,434.752 286.332,435.752 284.5,436.5C 283.749,435.624 283.249,434.624 283,433.5C 282.586,433.957 282.086,434.291 281.5,434.5C 280.719,433.271 280.219,431.938 280,430.5C 279.667,432.5 279.333,434.5 279,436.5C 277.933,435.057 276.766,433.724 275.5,432.5C 276.376,431.749 277.376,431.249 278.5,431C 277.584,430.626 276.75,430.126 276,429.5C 274.204,430.767 272.371,430.767 270.5,429.5C 269.201,430.09 268.368,431.09 268,432.5C 267.313,430.445 266.146,428.779 264.5,427.5C 263.224,432.682 262.557,432.682 262.5,427.5C 260.61,427.297 259.11,427.963 258,429.5C 257.097,428.299 255.931,427.465 254.5,427C 254.833,426.667 255.167,426.333 255.5,426C 254.377,424.956 253.044,424.29 251.5,424C 256.206,424.226 257.039,423.059 254,420.5C 252.126,422.776 250.459,422.443 249,419.5C 248.333,422.167 247.667,422.167 247,419.5C 246.333,420.833 245.667,420.833 245,419.5C 244.779,422.943 243.779,423.276 242,420.5C 240.129,421.668 238.629,421.168 237.5,419C 239.5,419 241.5,419 243.5,419C 245.158,418.275 245.658,417.108 245,415.5C 244.333,416.833 243.333,417.833 242,418.5C 239.429,417.755 236.929,417.421 234.5,417.5C 233.833,418.167 233.167,418.833 232.5,419.5C 228.282,418.507 226.448,416.174 227,412.5C 225.384,413.545 223.717,414.545 222,415.5C 220.148,413.77 220.314,412.604 222.5,412C 221.299,411.097 220.465,409.931 220,408.5C 218.284,409.552 217.284,408.886 217,406.5C 215.951,407.517 214.784,407.684 213.5,407C 216.228,406.361 216.728,405.194 215,403.5C 213.266,404.638 211.432,405.138 209.5,405C 210.167,404 210.833,403 211.5,402C 208.933,401.264 207.433,400.097 207,398.5C 205.233,400.164 205.733,401.331 208.5,402C 205.528,405.293 204.028,404.459 204,399.5C 203.667,400.5 203.333,401.5 203,402.5C 200.519,404.458 197.853,406.125 195,407.5C 194.617,406.944 194.117,406.611 193.5,406.5C 192.504,406.414 191.671,406.748 191,407.5C 190.692,406.692 190.192,406.025 189.5,405.5C 185.525,407.499 181.859,409.832 178.5,412.5C 174.859,414.795 171.192,417.128 167.5,419.5C 181.81,405.844 198.81,397.177 218.5,393.5C 219.622,394.156 220.955,394.489 222.5,394.5C 232.328,393.938 241.995,393.271 251.5,392.5 Z"/></g>
<g><path style="opacity:1" fill="#23a6ed" d="M 300.5,411.5 C 318.935,423.45 332.101,439.783 340,460.5C 342.939,467.921 344.772,475.588 345.5,483.5C 345.657,484.873 345.49,486.207 345,487.5C 344.178,481.511 342.678,475.844 340.5,470.5C 340.483,468.435 340.15,466.435 339.5,464.5C 338.258,459.755 336.258,455.421 333.5,451.5C 331.28,446.728 328.78,442.062 326,437.5C 322.839,434.482 320.172,431.149 318,427.5C 312.156,422.026 306.323,416.693 300.5,411.5 Z"/></g>
<g><path style="opacity:1" fill="#0f8cf4" d="M 193.5,406.5 C 192.491,407.939 192.824,409.272 194.5,410.5C 195.696,410.154 195.696,409.654 194.5,409C 195.833,408.333 197.167,408.333 198.5,409C 198.167,409.333 197.833,409.667 197.5,410C 199.305,410.972 200.972,412.139 202.5,413.5C 202.998,412.397 203.331,411.397 203.5,410.5C 204.298,412.078 204.798,413.744 205,415.5C 205.483,414.552 205.649,413.552 205.5,412.5C 207.58,413.044 209.58,413.878 211.5,415C 210.833,415.333 210.167,415.667 209.5,416C 210.257,417.512 211.257,418.846 212.5,420C 213.744,420.456 214.577,419.956 215,418.5C 216.224,421.473 218.224,422.14 221,420.5C 222.067,421.191 223.234,421.691 224.5,422C 224.167,422.333 223.833,422.667 223.5,423C 224.5,423.833 225.5,424.667 226.5,425.5C 225.145,426.675 225.312,427.675 227,428.5C 227.691,426.109 228.691,426.109 230,428.5C 231.085,427.707 232.252,427.04 233.5,426.5C 235.135,427.33 236.802,427.497 238.5,427C 237.272,427.779 236.272,428.779 235.5,430C 236.861,431.927 237.694,434.094 238,436.5C 238.483,435.552 238.649,434.552 238.5,433.5C 240.451,433.227 241.951,433.893 243,435.5C 243.333,434.833 243.667,434.167 244,433.5C 245.751,435.49 246.751,437.823 247,440.5C 247.374,439.584 247.874,438.75 248.5,438C 250.075,438.379 251.575,438.212 253,437.5C 253.617,438.449 253.451,439.282 252.5,440C 254.933,440.766 256.766,442.266 258,444.5C 258.414,444.043 258.914,443.709 259.5,443.5C 260.711,444.274 260.711,445.107 259.5,446C 260.449,446.617 261.282,446.451 262,445.5C 262.652,447.723 264.152,448.89 266.5,449C 265.007,450.156 265.174,450.99 267,451.5C 268.843,448.262 271.01,447.929 273.5,450.5C 276.099,446.359 276.765,446.526 275.5,451C 276.766,451.309 277.933,451.809 279,452.5C 279.333,452.167 279.667,451.833 280,451.5C 280.249,452.624 280.749,453.624 281.5,454.5C 281.736,453.753 282.07,452.92 282.5,452C 283.449,451.383 284.282,451.549 285,452.5C 285.333,451.833 285.667,451.167 286,450.5C 287.264,454.011 289.097,454.178 291.5,451C 290.833,450.667 290.167,450.333 289.5,450C 292.379,447.667 294.379,448.167 295.5,451.5C 295.023,452.478 294.357,453.311 293.5,454C 295.604,456.238 297.938,457.238 300.5,457C 300.167,457.333 299.833,457.667 299.5,458C 300.833,458.667 302.167,459.333 303.5,460C 302.269,461.183 302.269,462.349 303.5,463.5C 304.192,462.975 304.692,462.308 305,461.5C 306.915,466.788 307.582,466.788 307,461.5C 308,462.833 309,462.833 310,461.5C 310.456,462.744 309.956,463.577 308.5,464C 309.5,464.5 310.5,465 311.5,465.5C 313.337,461.723 315.004,461.723 316.5,465.5C 320.68,463.273 324.18,464.273 327,468.5C 328.008,468.018 329.175,467.852 330.5,468C 330.167,467.667 329.833,467.333 329.5,467C 330.46,465.581 331.293,464.081 332,462.5C 332.595,463.899 332.428,465.232 331.5,466.5C 332,466.833 332.5,467.167 333,467.5C 334.416,466.427 335.75,466.427 337,467.5C 337.617,466.551 337.451,465.718 336.5,465C 337.448,464.517 338.448,464.351 339.5,464.5C 340.15,466.435 340.483,468.435 340.5,470.5C 340.357,472.262 340.691,473.929 341.5,475.5C 340.758,476.287 339.925,476.953 339,477.5C 337.951,476.483 336.784,476.316 335.5,477C 335.957,477.414 336.291,477.914 336.5,478.5C 334.929,480.882 334.096,483.549 334,486.5C 330.406,485.504 326.573,484.17 322.5,482.5C 320.613,484.133 319.113,483.8 318,481.5C 318,482.833 318,484.167 318,485.5C 316.883,484.051 316.216,482.384 316,480.5C 315.047,482.592 313.714,482.925 312,481.5C 311.667,482.167 311.333,482.833 311,483.5C 309.667,479.5 308.333,479.5 307,483.5C 306.28,481.888 306.446,480.388 307.5,479C 305.578,477.54 304.911,475.873 305.5,474C 304.354,473.355 303.354,472.522 302.5,471.5C 300.833,470.167 299.167,470.167 297.5,471.5C 296.749,472.376 296.249,473.376 296,474.5C 293.686,471.974 291.853,469.641 290.5,467.5C 288.941,468.074 287.441,468.74 286,469.5C 283.834,467.879 281.334,467.045 278.5,467C 281.167,466.333 281.167,465.667 278.5,465C 280.271,464.465 280.604,463.631 279.5,462.5C 278.575,463.641 277.741,463.641 277,462.5C 276.383,463.449 276.549,464.282 277.5,465C 276.146,466.294 274.812,466.46 273.5,465.5C 272.808,466.025 272.308,466.692 272,467.5C 269.674,465.953 268.507,464.119 268.5,462C 266.633,461.289 265.133,461.789 264,463.5C 263.464,461.131 262.297,459.131 260.5,457.5C 260.089,458.262 259.923,459.262 260,460.5C 258.5,458.667 257,456.833 255.5,455C 255.833,454.667 256.167,454.333 256.5,454C 255.167,454.667 253.833,455.333 252.5,456C 250.384,454.829 249.718,453.329 250.5,451.5C 249.227,448.217 247.727,448.551 246,452.5C 244.343,449.644 242.343,446.978 240,444.5C 239.531,446.108 238.865,447.775 238,449.5C 236.333,447.5 234.667,445.5 233,443.5C 232.692,444.308 232.192,444.975 231.5,445.5C 230.673,443.838 229.507,442.505 228,441.5C 228.875,443.311 229.209,445.311 229,447.5C 227.013,446.782 225.179,445.782 223.5,444.5C 222.158,446.005 220.492,446.672 218.5,446.5C 218.669,441.959 218.002,441.626 216.5,445.5C 216.847,443.86 216.347,442.193 215,440.5C 214.586,440.957 214.086,441.291 213.5,441.5C 212.185,439.684 210.685,438.017 209,436.5C 208.683,438.301 208.016,438.634 207,437.5C 206.689,436.258 207.189,435.258 208.5,434.5C 206.892,433.758 205.225,433.591 203.5,434C 204.833,432.667 206.167,431.333 207.5,430C 206.324,428.086 205.324,428.252 204.5,430.5C 202.142,428.976 200.309,426.976 199,424.5C 198.667,425.167 198.333,425.833 198,426.5C 197.558,424.321 196.558,423.655 195,424.5C 194.833,424.167 194.667,423.833 194.5,423.5C 195.376,422.749 196.376,422.249 197.5,422C 196.747,420.513 195.914,420.346 195,421.5C 194.667,420.833 194.333,420.167 194,419.5C 192.783,420.386 191.449,421.386 190,422.5C 188.176,422.024 186.676,420.524 185.5,418C 184.167,418 182.833,418 181.5,418C 181.12,415.674 180.12,413.841 178.5,412.5C 181.859,409.832 185.525,407.499 189.5,405.5C 190.192,406.025 190.692,406.692 191,407.5C 191.671,406.748 192.504,406.414 193.5,406.5 Z"/></g>
<g><path style="opacity:1" fill="#fafafa" d="M 531.5,437.5 C 539.833,437.5 548.167,437.5 556.5,437.5C 556.045,469.203 556.545,500.869 558,532.5C 562.86,545.273 572.193,551.273 586,550.5C 598.856,550.908 607.856,545.241 613,533.5C 614.463,501.541 614.963,469.541 614.5,437.5C 623.167,437.5 631.833,437.5 640.5,437.5C 640.667,466.169 640.5,494.835 640,523.5C 635.867,556.294 617.2,572.96 584,573.5C 554.581,572.412 537.248,557.412 532,528.5C 531.5,498.168 531.333,467.835 531.5,437.5 Z"/></g>
<g><path style="opacity:1" fill="#fcfcfc" d="M 666.5,437.5 C 689.878,437.052 713.211,437.552 736.5,439C 760.485,446.784 770.985,463.284 768,488.5C 766.058,497.216 761.891,504.716 755.5,511C 750.332,514.419 744.998,517.585 739.5,520.5C 750.167,537.167 760.833,553.833 771.5,570.5C 762.184,571.665 752.851,571.832 743.5,571C 733.5,555.333 723.5,539.667 713.5,524C 706.174,523.5 698.841,523.334 691.5,523.5C 691.5,539.5 691.5,555.5 691.5,571.5C 683.167,571.5 674.833,571.5 666.5,571.5C 666.5,526.833 666.5,482.167 666.5,437.5 Z"/></g>
<g><path style="opacity:1" fill="#fcfcfc" d="M 834.5,437.5 C 844.855,437.168 855.188,437.501 865.5,438.5C 882.5,482.5 899.5,526.5 916.5,570.5C 907.5,571.833 898.5,571.833 889.5,570.5C 885.927,560.611 882.26,550.778 878.5,541C 859.824,540.167 841.158,540.334 822.5,541.5C 818.927,551.389 815.26,561.222 811.5,571C 802.5,571.667 793.5,571.667 784.5,571C 801.857,526.764 818.523,482.264 834.5,437.5 Z"/></g>
<g><path style="opacity:1" fill="#1292f6" d="M 333.5,451.5 C 336.258,455.421 338.258,459.755 339.5,464.5C 338.448,464.351 337.448,464.517 336.5,465C 337.451,465.718 337.617,466.551 337,467.5C 335.75,466.427 334.416,466.427 333,467.5C 332.5,467.167 332,466.833 331.5,466.5C 332.428,465.232 332.595,463.899 332,462.5C 331.293,464.081 330.46,465.581 329.5,467C 329.833,467.333 330.167,467.667 330.5,468C 329.175,467.852 328.008,468.018 327,468.5C 324.18,464.273 320.68,463.273 316.5,465.5C 315.004,461.723 313.337,461.723 311.5,465.5C 310.5,465 309.5,464.5 308.5,464C 309.956,463.577 310.456,462.744 310,461.5C 309,462.833 308,462.833 307,461.5C 307.582,466.788 306.915,466.788 305,461.5C 304.692,462.308 304.192,462.975 303.5,463.5C 302.269,462.349 302.269,461.183 303.5,460C 302.167,459.333 300.833,458.667 299.5,458C 299.833,457.667 300.167,457.333 300.5,457C 297.938,457.238 295.604,456.238 293.5,454C 294.357,453.311 295.023,452.478 295.5,451.5C 294.379,448.167 292.379,447.667 289.5,450C 290.167,450.333 290.833,450.667 291.5,451C 289.097,454.178 287.264,454.011 286,450.5C 285.667,451.167 285.333,451.833 285,452.5C 284.282,451.549 283.449,451.383 282.5,452C 282.07,452.92 281.736,453.753 281.5,454.5C 280.749,453.624 280.249,452.624 280,451.5C 279.667,451.833 279.333,452.167 279,452.5C 277.933,451.809 276.766,451.309 275.5,451C 276.765,446.526 276.099,446.359 273.5,450.5C 271.01,447.929 268.843,448.262 267,451.5C 265.174,450.99 265.007,450.156 266.5,449C 264.152,448.89 262.652,447.723 262,445.5C 261.282,446.451 260.449,446.617 259.5,446C 260.711,445.107 260.711,444.274 259.5,443.5C 258.914,443.709 258.414,444.043 258,444.5C 256.766,442.266 254.933,440.766 252.5,440C 253.451,439.282 253.617,438.449 253,437.5C 251.575,438.212 250.075,438.379 248.5,438C 247.874,438.75 247.374,439.584 247,440.5C 246.751,437.823 245.751,435.49 244,433.5C 243.667,434.167 243.333,434.833 243,435.5C 241.951,433.893 240.451,433.227 238.5,433.5C 238.649,434.552 238.483,435.552 238,436.5C 237.694,434.094 236.861,431.927 235.5,430C 236.272,428.779 237.272,427.779 238.5,427C 236.802,427.497 235.135,427.33 233.5,426.5C 232.252,427.04 231.085,427.707 230,428.5C 228.691,426.109 227.691,426.109 227,428.5C 225.312,427.675 225.145,426.675 226.5,425.5C 225.5,424.667 224.5,423.833 223.5,423C 223.833,422.667 224.167,422.333 224.5,422C 223.234,421.691 222.067,421.191 221,420.5C 218.224,422.14 216.224,421.473 215,418.5C 214.577,419.956 213.744,420.456 212.5,420C 211.257,418.846 210.257,417.512 209.5,416C 210.167,415.667 210.833,415.333 211.5,415C 209.58,413.878 207.58,413.044 205.5,412.5C 205.649,413.552 205.483,414.552 205,415.5C 204.798,413.744 204.298,412.078 203.5,410.5C 203.331,411.397 202.998,412.397 202.5,413.5C 200.972,412.139 199.305,410.972 197.5,410C 197.833,409.667 198.167,409.333 198.5,409C 197.167,408.333 195.833,408.333 194.5,409C 195.696,409.654 195.696,410.154 194.5,410.5C 192.824,409.272 192.491,407.939 193.5,406.5C 194.117,406.611 194.617,406.944 195,407.5C 197.853,406.125 200.519,404.458 203,402.5C 203.333,401.5 203.667,400.5 204,399.5C 204.028,404.459 205.528,405.293 208.5,402C 205.733,401.331 205.233,400.164 207,398.5C 207.433,400.097 208.933,401.264 211.5,402C 210.833,403 210.167,404 209.5,405C 211.432,405.138 213.266,404.638 215,403.5C 216.728,405.194 216.228,406.361 213.5,407C 214.784,407.684 215.951,407.517 217,406.5C 217.284,408.886 218.284,409.552 220,408.5C 220.465,409.931 221.299,411.097 222.5,412C 220.314,412.604 220.148,413.77 222,415.5C 223.717,414.545 225.384,413.545 227,412.5C 226.448,416.174 228.282,418.507 232.5,419.5C 233.167,418.833 233.833,418.167 234.5,417.5C 236.929,417.421 239.429,417.755 242,418.5C 243.333,417.833 244.333,416.833 245,415.5C 245.658,417.108 245.158,418.275 243.5,419C 241.5,419 239.5,419 237.5,419C 238.629,421.168 240.129,421.668 242,420.5C 243.779,423.276 244.779,422.943 245,419.5C 245.667,420.833 246.333,420.833 247,419.5C 247.667,422.167 248.333,422.167 249,419.5C 250.459,422.443 252.126,422.776 254,420.5C 257.039,423.059 256.206,424.226 251.5,424C 253.044,424.29 254.377,424.956 255.5,426C 255.167,426.333 254.833,426.667 254.5,427C 255.931,427.465 257.097,428.299 258,429.5C 259.11,427.963 260.61,427.297 262.5,427.5C 262.557,432.682 263.224,432.682 264.5,427.5C 266.146,428.779 267.313,430.445 268,432.5C 268.368,431.09 269.201,430.09 270.5,429.5C 272.371,430.767 274.204,430.767 276,429.5C 276.75,430.126 277.584,430.626 278.5,431C 277.376,431.249 276.376,431.749 275.5,432.5C 276.766,433.724 277.933,435.057 279,436.5C 279.333,434.5 279.667,432.5 280,430.5C 280.219,431.938 280.719,433.271 281.5,434.5C 282.086,434.291 282.586,433.957 283,433.5C 283.249,434.624 283.749,435.624 284.5,436.5C 286.332,435.752 287.999,434.752 289.5,433.5C 290.251,434.376 290.751,435.376 291,436.5C 293.242,435.825 295.409,436.325 297.5,438C 296.235,439.337 295.735,440.837 296,442.5C 297.874,440.224 299.541,440.557 301,443.5C 302.83,441.243 305.163,441.243 308,443.5C 309.333,442.833 310.667,442.167 312,441.5C 312.5,442.667 313.333,443.5 314.5,444C 314.167,444.333 313.833,444.667 313.5,445C 315.351,445.837 317.184,446.671 319,447.5C 319.359,444.456 320.026,444.122 321,446.5C 323.557,445.354 324.89,446.354 325,449.5C 325.718,448.549 326.551,448.383 327.5,449C 326.949,450.398 326.616,451.732 326.5,453C 327.047,453.925 327.713,454.758 328.5,455.5C 329.736,454.754 331.07,454.421 332.5,454.5C 332.263,453.209 332.596,452.209 333.5,451.5 Z"/></g>
<g><path style="opacity:1" fill="#fbfbfb" d="M 440.5,438.5 C 450.855,438.168 461.188,438.501 471.5,439.5C 488.5,483.5 505.5,527.5 522.5,571.5C 513.518,572.665 504.518,572.832 495.5,572C 491.696,561.588 487.696,551.255 483.5,541C 465.158,540.167 446.824,540.334 428.5,541.5C 424.231,551.641 420.564,561.975 417.5,572.5C 408.5,572.5 399.5,572.5 390.5,572.5C 406.607,527.621 423.273,482.954 440.5,438.5 Z"/></g>
<g><path style="opacity:1" fill="#0a79ee" d="M 158.5,430.5 C 159.473,431.791 160.473,431.791 161.5,430.5C 162.541,432.991 163.374,432.991 164,430.5C 164.595,431.899 164.428,433.232 163.5,434.5C 165.149,435.648 166.649,436.981 168,438.5C 169.388,437.446 170.888,437.28 172.5,438C 170.219,439.482 170.219,441.149 172.5,443C 174.433,443.783 175.933,443.283 177,441.5C 178.019,443.269 178.186,444.936 177.5,446.5C 179.469,448.421 180.969,448.421 182,446.5C 182.893,447.711 183.726,447.711 184.5,446.5C 183.145,445.325 183.312,444.325 185,443.5C 186.682,444.865 186.849,446.365 185.5,448C 186.993,449.368 188.493,449.535 190,448.5C 192.149,450.724 191.649,452.224 188.5,453C 189.536,454.617 190.703,454.784 192,453.5C 192.333,454.167 192.667,454.833 193,455.5C 193.542,450.279 194.376,450.279 195.5,455.5C 200.31,456.239 204.643,458.072 208.5,461C 207.269,462.183 207.269,463.349 208.5,464.5C 209.192,463.975 209.692,463.308 210,462.5C 210.219,463.938 210.719,465.271 211.5,466.5C 213.323,467.491 214.823,468.824 216,470.5C 216.333,470.167 216.667,469.833 217,469.5C 218.672,472.514 220.672,474.514 223,475.5C 223.333,474.833 223.667,474.167 224,473.5C 224.465,474.931 225.299,476.097 226.5,477C 225.62,478.356 225.286,479.856 225.5,481.5C 228.468,481.626 230.468,483.126 231.5,486C 230.181,486.195 228.847,486.028 227.5,485.5C 224.992,483.076 221.992,481.41 218.5,480.5C 216.574,478.707 214.241,477.707 211.5,477.5C 210.209,477.737 209.209,477.404 208.5,476.5C 207.5,475.833 206.5,475.167 205.5,474.5C 203.187,472.812 200.187,471.146 196.5,469.5C 196.709,468.914 197.043,468.414 197.5,468C 193.714,467.008 190.047,465.841 186.5,464.5C 186.64,462.876 185.973,461.71 184.5,461C 185.451,460.282 185.617,459.449 185,458.5C 183.16,459.833 182.66,459.666 183.5,458C 182.333,457.5 181.5,456.667 181,455.5C 179.284,456.552 178.284,455.886 178,453.5C 176.701,453.966 175.201,453.966 173.5,453.5C 173.649,454.552 173.483,455.552 173,456.5C 172.333,455.167 171.667,453.833 171,452.5C 169.667,455.167 168.333,455.167 167,452.5C 165.493,453.535 163.993,453.368 162.5,452C 163.308,451.692 163.975,451.192 164.5,450.5C 164.167,449.167 163.833,447.833 163.5,446.5C 162.808,447.025 162.308,447.692 162,448.5C 161.395,446.519 160.395,446.185 159,447.5C 157.796,446.141 156.296,445.141 154.5,444.5C 155.262,444.089 156.262,443.923 157.5,444C 156.051,442.883 154.384,442.216 152.5,442C 153.716,440.26 155.382,439.26 157.5,439C 155.109,437.691 155.109,436.691 157.5,436C 156.552,435.517 155.552,435.351 154.5,435.5C 155.833,433.833 157.167,432.167 158.5,430.5 Z"/></g>
<g><path style="opacity:1" fill="#0971ea" d="M 154.5,435.5 C 155.552,435.351 156.552,435.517 157.5,436C 155.109,436.691 155.109,437.691 157.5,439C 155.382,439.26 153.716,440.26 152.5,442C 154.384,442.216 156.051,442.883 157.5,444C 156.262,443.923 155.262,444.089 154.5,444.5C 156.296,445.141 157.796,446.141 159,447.5C 160.395,446.185 161.395,446.519 162,448.5C 162.308,447.692 162.808,447.025 163.5,446.5C 163.833,447.833 164.167,449.167 164.5,450.5C 163.975,451.192 163.308,451.692 162.5,452C 163.993,453.368 165.493,453.535 167,452.5C 168.333,455.167 169.667,455.167 171,452.5C 171.667,453.833 172.333,455.167 173,456.5C 173.483,455.552 173.649,454.552 173.5,453.5C 175.201,453.966 176.701,453.966 178,453.5C 178.284,455.886 179.284,456.552 181,455.5C 181.5,456.667 182.333,457.5 183.5,458C 182.66,459.666 183.16,459.833 185,458.5C 185.617,459.449 185.451,460.282 184.5,461C 185.973,461.71 186.64,462.876 186.5,464.5C 190.047,465.841 193.714,467.008 197.5,468C 197.043,468.414 196.709,468.914 196.5,469.5C 200.187,471.146 203.187,472.812 205.5,474.5C 194.908,472.686 184.241,472.186 173.5,473C 170.203,473.204 167.203,474.037 164.5,475.5C 158.99,478.009 153.324,480.342 147.5,482.5C 148.679,480.493 148.179,480.16 146,481.5C 145.251,480.365 145.417,479.365 146.5,478.5C 149.37,478.413 152.203,478.413 155,478.5C 154.667,477.167 154.333,475.833 154,474.5C 155.566,472.178 157.733,470.678 160.5,470C 159.687,468.686 158.687,467.519 157.5,466.5C 158.582,466.251 159.915,466.085 161.5,466C 161.868,464.527 161.368,463.027 160,461.5C 159.517,462.448 159.351,463.448 159.5,464.5C 158.178,464.33 157.011,464.663 156,465.5C 154.47,462.647 152.303,461.98 149.5,463.5C 148.41,462.609 148.41,461.609 149.5,460.5C 146.443,456.912 143.276,456.912 140,460.5C 139.536,459.906 139.369,459.239 139.5,458.5C 142.073,451.685 145.406,445.351 149.5,439.5C 149.369,440.239 149.536,440.906 150,441.5C 151.332,439.34 152.832,437.34 154.5,435.5 Z"/></g>
<g><path style="opacity:1" fill="#0f86f2" d="M 178.5,412.5 C 180.12,413.841 181.12,415.674 181.5,418C 182.833,418 184.167,418 185.5,418C 186.676,420.524 188.176,422.024 190,422.5C 191.449,421.386 192.783,420.386 194,419.5C 194.333,420.167 194.667,420.833 195,421.5C 195.914,420.346 196.747,420.513 197.5,422C 196.376,422.249 195.376,422.749 194.5,423.5C 194.667,423.833 194.833,424.167 195,424.5C 196.558,423.655 197.558,424.321 198,426.5C 198.333,425.833 198.667,425.167 199,424.5C 200.309,426.976 202.142,428.976 204.5,430.5C 205.324,428.252 206.324,428.086 207.5,430C 206.167,431.333 204.833,432.667 203.5,434C 205.225,433.591 206.892,433.758 208.5,434.5C 207.189,435.258 206.689,436.258 207,437.5C 208.016,438.634 208.683,438.301 209,436.5C 210.685,438.017 212.185,439.684 213.5,441.5C 214.086,441.291 214.586,440.957 215,440.5C 216.347,442.193 216.847,443.86 216.5,445.5C 218.002,441.626 218.669,441.959 218.5,446.5C 220.492,446.672 222.158,446.005 223.5,444.5C 225.179,445.782 227.013,446.782 229,447.5C 229.209,445.311 228.875,443.311 228,441.5C 229.507,442.505 230.673,443.838 231.5,445.5C 232.192,444.975 232.692,444.308 233,443.5C 234.667,445.5 236.333,447.5 238,449.5C 238.865,447.775 239.531,446.108 240,444.5C 242.343,446.978 244.343,449.644 246,452.5C 247.727,448.551 249.227,448.217 250.5,451.5C 249.718,453.329 250.384,454.829 252.5,456C 253.833,455.333 255.167,454.667 256.5,454C 256.167,454.333 255.833,454.667 255.5,455C 257,456.833 258.5,458.667 260,460.5C 259.923,459.262 260.089,458.262 260.5,457.5C 262.297,459.131 263.464,461.131 264,463.5C 265.133,461.789 266.633,461.289 268.5,462C 268.507,464.119 269.674,465.953 272,467.5C 272.308,466.692 272.808,466.025 273.5,465.5C 274.812,466.46 276.146,466.294 277.5,465C 276.549,464.282 276.383,463.449 277,462.5C 277.741,463.641 278.575,463.641 279.5,462.5C 280.604,463.631 280.271,464.465 278.5,465C 281.167,465.667 281.167,466.333 278.5,467C 281.334,467.045 283.834,467.879 286,469.5C 287.441,468.74 288.941,468.074 290.5,467.5C 291.853,469.641 293.686,471.974 296,474.5C 296.249,473.376 296.749,472.376 297.5,471.5C 299.167,470.167 300.833,470.167 302.5,471.5C 303.354,472.522 304.354,473.355 305.5,474C 304.911,475.873 305.578,477.54 307.5,479C 306.446,480.388 306.28,481.888 307,483.5C 308.333,479.5 309.667,479.5 311,483.5C 311.333,482.833 311.667,482.167 312,481.5C 313.714,482.925 315.047,482.592 316,480.5C 316.216,482.384 316.883,484.051 318,485.5C 318,484.167 318,482.833 318,481.5C 319.113,483.8 320.613,484.133 322.5,482.5C 326.573,484.17 330.406,485.504 334,486.5C 334.096,483.549 334.929,480.882 336.5,478.5C 336.291,477.914 335.957,477.414 335.5,477C 336.784,476.316 337.951,476.483 339,477.5C 339.925,476.953 340.758,476.287 341.5,475.5C 340.691,473.929 340.357,472.262 340.5,470.5C 342.678,475.844 344.178,481.511 345,487.5C 345.49,486.207 345.657,484.873 345.5,483.5C 346.451,484.919 346.784,486.585 346.5,488.5C 345.549,489.919 345.216,491.585 345.5,493.5C 343.519,494.105 343.185,495.105 344.5,496.5C 342.854,496.542 341.188,496.542 339.5,496.5C 340.491,495.335 341.491,494.168 342.5,493C 342.333,492.5 342.167,492 342,491.5C 341.009,492.939 339.676,493.939 338,494.5C 333.691,493.895 329.524,493.228 325.5,492.5C 325.587,495.598 325.087,495.932 324,493.5C 323.667,494.167 323.333,494.833 323,495.5C 322.667,494.167 322.333,492.833 322,491.5C 321.667,492.167 321.333,492.833 321,493.5C 318.914,491.751 316.581,490.417 314,489.5C 312.347,489.82 311.347,490.82 311,492.5C 310.333,491.833 309.667,491.167 309,490.5C 309.979,492.279 309.646,493.945 308,495.5C 307.121,493.104 306.454,490.771 306,488.5C 304.796,489.471 304.296,490.471 304.5,491.5C 302.321,489.9 302.654,488.4 305.5,487C 303.321,486.558 302.655,485.558 303.5,484C 302.551,483.383 301.718,483.549 301,484.5C 300.374,482.009 299.541,482.009 298.5,484.5C 298.167,483.833 297.833,483.167 297.5,482.5C 296.5,483 295.5,483.5 294.5,484C 295.696,484.654 295.696,485.154 294.5,485.5C 293.3,484.469 291.966,483.635 290.5,483C 291.276,481.23 291.11,479.397 290,477.5C 289.097,478.701 287.931,479.535 286.5,480C 287.167,480.333 287.833,480.667 288.5,481C 286.972,482.361 285.305,483.528 283.5,484.5C 282.304,484.154 282.304,483.654 283.5,483C 281.464,482.546 279.63,481.713 278,480.5C 276.351,481.898 275.018,481.564 274,479.5C 273.577,480.956 272.744,481.456 271.5,481C 272.641,480.259 272.641,479.425 271.5,478.5C 269.255,476.041 267.089,476.041 265,478.5C 264.374,476.009 263.541,476.009 262.5,478.5C 262.467,477.011 261.967,475.678 261,474.5C 260.667,475.5 260.333,476.5 260,477.5C 258.933,476.809 257.766,476.309 256.5,476C 258.116,475.385 259.449,474.385 260.5,473C 257.605,472.083 254.605,471.583 251.5,471.5C 253.423,470.692 255.423,470.192 257.5,470C 256.638,467.266 255.805,467.099 255,469.5C 252.724,469.316 250.39,469.316 248,469.5C 246.941,469.37 246.108,468.87 245.5,468C 246.956,467.577 247.456,466.744 247,465.5C 244.281,466.444 241.448,466.777 238.5,466.5C 238.688,464.897 238.188,463.563 237,462.5C 236.667,463.167 236.333,463.833 236,464.5C 234.638,462.564 232.805,461.231 230.5,460.5C 230.709,459.914 231.043,459.414 231.5,459C 230.258,458.689 229.258,459.189 228.5,460.5C 227.029,459.619 226.196,458.286 226,456.5C 224.915,458.657 223.749,458.824 222.5,457C 223.956,456.577 224.456,455.744 224,454.5C 223.667,454.833 223.333,455.167 223,455.5C 220.539,454.782 218.039,454.115 215.5,453.5C 213.775,455.748 212.442,455.248 211.5,452C 213.384,451.784 215.051,451.117 216.5,450C 215.551,449.383 214.718,449.549 214,450.5C 213.641,447.456 212.974,447.122 212,449.5C 211.667,449.167 211.333,448.833 211,448.5C 210.07,450.545 208.57,451.379 206.5,451C 207.038,448.749 207.205,446.582 207,444.5C 206.667,444.833 206.333,445.167 206,445.5C 204.494,442.526 202.828,442.193 201,444.5C 199.901,441.961 198.234,441.295 196,442.5C 195.735,440.837 196.235,439.337 197.5,438C 195.874,438.195 194.207,438.195 192.5,438C 193.38,436.644 193.714,435.144 193.5,433.5C 191.201,434.138 189.034,435.138 187,436.5C 185.333,435.167 183.667,433.833 182,432.5C 181.405,436.082 180.071,436.416 178,433.5C 177.667,433.833 177.333,434.167 177,434.5C 176,432.833 175,431.167 174,429.5C 173.667,429.833 173.333,430.167 173,430.5C 172.529,428.754 171.862,427.087 171,425.5C 170.667,426.833 170.333,428.167 170,429.5C 169.097,428.299 167.931,427.465 166.5,427C 167.28,425.927 167.113,424.76 166,423.5C 165.667,424.5 165.333,425.5 165,426.5C 164.282,425.549 163.449,425.383 162.5,426C 160.616,427.049 159.282,428.549 158.5,430.5C 157.167,432.167 155.833,433.833 154.5,435.5C 152.832,437.34 151.332,439.34 150,441.5C 149.536,440.906 149.369,440.239 149.5,439.5C 154.132,431.546 160.132,424.879 167.5,419.5C 171.192,417.128 174.859,414.795 178.5,412.5 Z"/></g>
<g><path style="opacity:1" fill="#107fef" d="M 344.5,496.5 C 344.9,501.037 343.9,505.203 341.5,509C 342.761,513.411 341.594,514.244 338,511.5C 336.989,511.892 336.489,512.559 336.5,513.5C 335.201,512.91 334.368,511.91 334,510.5C 332.615,511.551 331.615,512.884 331,514.5C 330.626,513.584 330.126,512.75 329.5,512C 326.114,510.808 322.947,509.308 320,507.5C 318.667,508.167 317.667,509.167 317,510.5C 316.033,509.322 315.533,507.989 315.5,506.5C 314.573,508.113 313.739,509.779 313,511.5C 312.167,510.5 311.333,509.5 310.5,508.5C 310.167,509.167 309.833,509.833 309.5,510.5C 307.88,507.942 306.38,507.942 305,510.5C 304.801,508.598 303.967,507.098 302.5,506C 305.028,505.331 305.028,504.498 302.5,503.5C 301.749,504.376 301.249,505.376 301,506.5C 299.168,506.134 297.668,504.801 296.5,502.5C 294.902,504.973 293.402,504.973 292,502.5C 290.372,503.097 288.705,502.763 287,501.5C 286.717,504.742 285.883,505.076 284.5,502.5C 282.736,505.177 281.57,504.844 281,501.5C 280.798,503.256 280.298,504.922 279.5,506.5C 278.833,505.5 278.167,504.5 277.5,503.5C 276.313,504.894 275.646,504.727 275.5,503C 275.905,502.055 276.572,501.388 277.5,501C 274.866,500.013 272.532,498.513 270.5,496.5C 270.846,495.304 271.346,495.304 272,496.5C 272.483,495.552 272.649,494.552 272.5,493.5C 276.339,493.388 276.339,492.721 272.5,491.5C 270.554,493.087 269.054,492.754 268,490.5C 266.129,491.668 264.629,491.168 263.5,489C 265.709,488.043 265.543,486.876 263,485.5C 260.56,487.274 258.894,489.608 258,492.5C 257.667,491.5 257.333,490.5 257,489.5C 254.178,490.203 251.178,490.203 248,489.5C 246.333,488.167 244.667,486.833 243,485.5C 242.646,487.807 241.646,488.141 240,486.5C 239.05,487.022 238.216,487.689 237.5,488.5C 235.894,488.519 234.228,488.353 232.5,488C 233.71,489.039 234.71,490.206 235.5,491.5C 232.467,489.984 229.8,487.984 227.5,485.5C 228.847,486.028 230.181,486.195 231.5,486C 230.468,483.126 228.468,481.626 225.5,481.5C 225.286,479.856 225.62,478.356 226.5,477C 225.299,476.097 224.465,474.931 224,473.5C 223.667,474.167 223.333,474.833 223,475.5C 220.672,474.514 218.672,472.514 217,469.5C 216.667,469.833 216.333,470.167 216,470.5C 214.823,468.824 213.323,467.491 211.5,466.5C 210.719,465.271 210.219,463.938 210,462.5C 209.692,463.308 209.192,463.975 208.5,464.5C 207.269,463.349 207.269,462.183 208.5,461C 204.643,458.072 200.31,456.239 195.5,455.5C 194.376,450.279 193.542,450.279 193,455.5C 192.667,454.833 192.333,454.167 192,453.5C 190.703,454.784 189.536,454.617 188.5,453C 191.649,452.224 192.149,450.724 190,448.5C 188.493,449.535 186.993,449.368 185.5,448C 186.849,446.365 186.682,444.865 185,443.5C 183.312,444.325 183.145,445.325 184.5,446.5C 183.726,447.711 182.893,447.711 182,446.5C 180.969,448.421 179.469,448.421 177.5,446.5C 178.186,444.936 178.019,443.269 177,441.5C 175.933,443.283 174.433,443.783 172.5,443C 170.219,441.149 170.219,439.482 172.5,438C 170.888,437.28 169.388,437.446 168,438.5C 166.649,436.981 165.149,435.648 163.5,434.5C 164.428,433.232 164.595,431.899 164,430.5C 163.374,432.991 162.541,432.991 161.5,430.5C 160.473,431.791 159.473,431.791 158.5,430.5C 159.282,428.549 160.616,427.049 162.5,426C 163.449,425.383 164.282,425.549 165,426.5C 165.333,425.5 165.667,424.5 166,423.5C 167.113,424.76 167.28,425.927 166.5,427C 167.931,427.465 169.097,428.299 170,429.5C 170.333,428.167 170.667,426.833 171,425.5C 171.862,427.087 172.529,428.754 173,430.5C 173.333,430.167 173.667,429.833 174,429.5C 175,431.167 176,432.833 177,434.5C 177.333,434.167 177.667,433.833 178,433.5C 180.071,436.416 181.405,436.082 182,432.5C 183.667,433.833 185.333,435.167 187,436.5C 189.034,435.138 191.201,434.138 193.5,433.5C 193.714,435.144 193.38,436.644 192.5,438C 194.207,438.195 195.874,438.195 197.5,438C 196.235,439.337 195.735,440.837 196,442.5C 198.234,441.295 199.901,441.961 201,444.5C 202.828,442.193 204.494,442.526 206,445.5C 206.333,445.167 206.667,444.833 207,444.5C 207.205,446.582 207.038,448.749 206.5,451C 208.57,451.379 210.07,450.545 211,448.5C 211.333,448.833 211.667,449.167 212,449.5C 212.974,447.122 213.641,447.456 214,450.5C 214.718,449.549 215.551,449.383 216.5,450C 215.051,451.117 213.384,451.784 211.5,452C 212.442,455.248 213.775,455.748 215.5,453.5C 218.039,454.115 220.539,454.782 223,455.5C 223.333,455.167 223.667,454.833 224,454.5C 224.456,455.744 223.956,456.577 222.5,457C 223.749,458.824 224.915,458.657 226,456.5C 226.196,458.286 227.029,459.619 228.5,460.5C 229.258,459.189 230.258,458.689 231.5,459C 231.043,459.414 230.709,459.914 230.5,460.5C 232.805,461.231 234.638,462.564 236,464.5C 236.333,463.833 236.667,463.167 237,462.5C 238.188,463.563 238.688,464.897 238.5,466.5C 241.448,466.777 244.281,466.444 247,465.5C 247.456,466.744 246.956,467.577 245.5,468C 246.108,468.87 246.941,469.37 248,469.5C 250.39,469.316 252.724,469.316 255,469.5C 255.805,467.099 256.638,467.266 257.5,470C 255.423,470.192 253.423,470.692 251.5,471.5C 254.605,471.583 257.605,472.083 260.5,473C 259.449,474.385 258.116,475.385 256.5,476C 257.766,476.309 258.933,476.809 260,477.5C 260.333,476.5 260.667,475.5 261,474.5C 261.967,475.678 262.467,477.011 262.5,478.5C 263.541,476.009 264.374,476.009 265,478.5C 267.089,476.041 269.255,476.041 271.5,478.5C 272.641,479.425 272.641,480.259 271.5,481C 272.744,481.456 273.577,480.956 274,479.5C 275.018,481.564 276.351,481.898 278,480.5C 279.63,481.713 281.464,482.546 283.5,483C 282.304,483.654 282.304,484.154 283.5,484.5C 285.305,483.528 286.972,482.361 288.5,481C 287.833,480.667 287.167,480.333 286.5,480C 287.931,479.535 289.097,478.701 290,477.5C 291.11,479.397 291.276,481.23 290.5,483C 291.966,483.635 293.3,484.469 294.5,485.5C 295.696,485.154 295.696,484.654 294.5,484C 295.5,483.5 296.5,483 297.5,482.5C 297.833,483.167 298.167,483.833 298.5,484.5C 299.541,482.009 300.374,482.009 301,484.5C 301.718,483.549 302.551,483.383 303.5,484C 302.655,485.558 303.321,486.558 305.5,487C 302.654,488.4 302.321,489.9 304.5,491.5C 304.296,490.471 304.796,489.471 306,488.5C 306.454,490.771 307.121,493.104 308,495.5C 309.646,493.945 309.979,492.279 309,490.5C 309.667,491.167 310.333,491.833 311,492.5C 311.347,490.82 312.347,489.82 314,489.5C 316.581,490.417 318.914,491.751 321,493.5C 321.333,492.833 321.667,492.167 322,491.5C 322.333,492.833 322.667,494.167 323,495.5C 323.333,494.833 323.667,494.167 324,493.5C 325.087,495.932 325.587,495.598 325.5,492.5C 329.524,493.228 333.691,493.895 338,494.5C 339.676,493.939 341.009,492.939 342,491.5C 342.167,492 342.333,492.5 342.5,493C 341.491,494.168 340.491,495.335 339.5,496.5C 341.188,496.542 342.854,496.542 344.5,496.5 Z"/></g>
<g><path style="opacity:1" fill="#0b0b0a" d="M 691.5,459.5 C 701.839,459.334 712.172,459.5 722.5,460C 742.117,463.399 747.95,474.233 740,492.5C 737.441,495.531 734.274,497.698 730.5,499C 717.561,500.422 704.561,500.922 691.5,500.5C 691.5,486.833 691.5,473.167 691.5,459.5 Z"/></g>
<g><path style="opacity:1" fill="#0963e3" d="M 147.5,482.5 C 144.68,484.745 141.68,486.745 138.5,488.5C 136.284,489.203 134.451,490.536 133,492.5C 132.722,491.584 132.222,490.918 131.5,490.5C 132.023,479.196 134.689,468.529 139.5,458.5C 139.369,459.239 139.536,459.906 140,460.5C 143.276,456.912 146.443,456.912 149.5,460.5C 148.41,461.609 148.41,462.609 149.5,463.5C 152.303,461.98 154.47,462.647 156,465.5C 157.011,464.663 158.178,464.33 159.5,464.5C 159.351,463.448 159.517,462.448 160,461.5C 161.368,463.027 161.868,464.527 161.5,466C 159.915,466.085 158.582,466.251 157.5,466.5C 158.687,467.519 159.687,468.686 160.5,470C 157.733,470.678 155.566,472.178 154,474.5C 154.333,475.833 154.667,477.167 155,478.5C 152.203,478.413 149.37,478.413 146.5,478.5C 145.417,479.365 145.251,480.365 146,481.5C 148.179,480.16 148.679,480.493 147.5,482.5 Z"/></g>
<g><path style="opacity:1" fill="#0a0908" d="M 849.5,465.5 C 856.502,482.138 863.169,499.138 869.5,516.5C 856.513,517.666 843.513,517.833 830.5,517C 837.539,500.089 843.873,482.922 849.5,465.5 Z"/></g>
<g><path style="opacity:1" fill="#27b4f0" d="M 205.5,474.5 C 206.5,475.167 207.5,475.833 208.5,476.5C 193.904,472.985 179.238,472.652 164.5,475.5C 167.203,474.037 170.203,473.204 173.5,473C 184.241,472.186 194.908,472.686 205.5,474.5 Z"/></g>
<g><path style="opacity:1" fill="#0a0a08" d="M 455.5,465.5 C 462.537,482.426 469.204,499.593 475.5,517C 462.5,517.667 449.5,517.667 436.5,517C 443.327,500.019 449.66,482.852 455.5,465.5 Z"/></g>
<g><path style="opacity:1" fill="#24abe2" d="M 211.5,477.5 C 214.241,477.707 216.574,478.707 218.5,480.5C 215.759,480.293 213.426,479.293 211.5,477.5 Z"/></g>
<g><path style="opacity:1" fill="#23b0e7" d="M 218.5,480.5 C 221.992,481.41 224.992,483.076 227.5,485.5C 224.008,484.59 221.008,482.924 218.5,480.5 Z"/></g>
<g><path style="opacity:1" fill="#2188d4" d="M 138.5,488.5 C 136.521,491.146 134.188,493.479 131.5,495.5C 131.193,494.113 131.193,492.446 131.5,490.5C 132.222,490.918 132.722,491.584 133,492.5C 134.451,490.536 136.284,489.203 138.5,488.5 Z"/></g>
<g><path style="opacity:1" fill="#24acf1" d="M 235.5,491.5 C 242.167,496.167 247.833,501.833 252.5,508.5C 246.5,503.167 240.833,497.5 235.5,491.5 Z"/></g>
<g><path style="opacity:1" fill="#2097ed" d="M 195.5,490.5 C 206.683,492.26 216.35,496.926 224.5,504.5C 214.952,497.588 204.285,493.088 192.5,491C 193.448,490.517 194.448,490.351 195.5,490.5 Z"/></g>
<g><path style="opacity:1" fill="#0f61e1" d="M 203.5,514.5 C 200.214,513.793 196.881,513.46 193.5,513.5C 186.994,512.117 180.66,512.784 174.5,515.5C 170.539,517.481 166.539,519.481 162.5,521.5C 162.611,520.883 162.944,520.383 163.5,520C 162.207,519.51 160.873,519.343 159.5,519.5C 159.5,518.5 159.5,517.5 159.5,516.5C 160.873,516.657 162.207,516.49 163.5,516C 162.366,514.984 162.699,514.317 164.5,514C 163.809,512.933 163.309,511.766 163,510.5C 161.233,511.817 159.899,513.484 159,515.5C 157.413,514.273 156.079,514.606 155,516.5C 153.323,512.949 150.49,511.616 146.5,512.5C 146.657,511.127 146.49,509.793 146,508.5C 145.138,510.087 144.471,511.754 144,513.5C 143.751,512.376 143.251,511.376 142.5,510.5C 138.639,514.004 135.639,518.004 133.5,522.5C 134.721,515.925 138.055,510.592 143.5,506.5C 143.897,507.525 144.563,507.692 145.5,507C 157.618,495.777 171.951,490.444 188.5,491C 184.169,492.85 179.836,493.516 175.5,493C 177.183,495.21 179.183,495.71 181.5,494.5C 182.23,495.934 183.23,497.1 184.5,498C 181.721,498.149 181.221,498.983 183,500.5C 184.533,500.056 186.033,499.723 187.5,499.5C 188.251,500.376 188.751,501.376 189,502.5C 189.333,502.167 189.667,501.833 190,501.5C 190.308,502.308 190.808,502.975 191.5,503.5C 191.833,502.833 192.167,502.167 192.5,501.5C 194.271,502.035 194.604,502.869 193.5,504C 195.715,505.044 198.048,505.71 200.5,506C 199.464,507.617 198.297,507.784 197,506.5C 196.333,507.5 196.333,508.5 197,509.5C 197.718,508.549 198.551,508.383 199.5,509C 198.359,509.741 198.359,510.575 199.5,511.5C 200.729,512.281 202.062,512.781 203.5,513C 204.738,513.69 204.738,514.19 203.5,514.5 Z"/></g>
<g><path style="opacity:1" fill="#136fe7" d="M 195.5,490.5 C 194.448,490.351 193.448,490.517 192.5,491C 204.285,493.088 214.952,497.588 224.5,504.5C 227.089,505.419 229.089,507.086 230.5,509.5C 236.784,516.12 243.117,522.786 249.5,529.5C 249.261,531.467 249.594,533.301 250.5,535C 248.741,535.798 247.074,535.631 245.5,534.5C 246.872,532.38 246.205,531.38 243.5,531.5C 243.5,530.167 243.5,528.833 243.5,527.5C 240.417,528.066 237.417,528.066 234.5,527.5C 233.676,529.748 232.676,529.914 231.5,528C 232.167,527.333 232.833,526.667 233.5,526C 231.899,525.727 230.399,525.227 229,524.5C 228.026,526.878 227.359,526.544 227,523.5C 226.646,525.807 225.646,526.141 224,524.5C 222.97,524.836 222.47,525.503 222.5,526.5C 222.167,526.5 221.833,526.5 221.5,526.5C 219.246,525.876 217.579,524.543 216.5,522.5C 216.047,521.542 215.381,520.708 214.5,520C 210.741,518.121 207.075,516.287 203.5,514.5C 204.738,514.19 204.738,513.69 203.5,513C 202.062,512.781 200.729,512.281 199.5,511.5C 198.359,510.575 198.359,509.741 199.5,509C 198.551,508.383 197.718,508.549 197,509.5C 196.333,508.5 196.333,507.5 197,506.5C 198.297,507.784 199.464,507.617 200.5,506C 198.048,505.71 195.715,505.044 193.5,504C 194.604,502.869 194.271,502.035 192.5,501.5C 192.167,502.167 191.833,502.833 191.5,503.5C 190.808,502.975 190.308,502.308 190,501.5C 189.667,501.833 189.333,502.167 189,502.5C 188.751,501.376 188.251,500.376 187.5,499.5C 186.033,499.723 184.533,500.056 183,500.5C 181.221,498.983 181.721,498.149 184.5,498C 183.23,497.1 182.23,495.934 181.5,494.5C 179.183,495.71 177.183,495.21 175.5,493C 179.836,493.516 184.169,492.85 188.5,491C 171.951,490.444 157.618,495.777 145.5,507C 144.563,507.692 143.897,507.525 143.5,506.5C 158.229,492.478 175.562,487.144 195.5,490.5 Z"/></g>
<g><path style="opacity:1" fill="#1479eb" d="M 344.5,496.5 C 343.185,495.105 343.519,494.105 345.5,493.5C 345.666,500.841 345.5,508.174 345,515.5C 344.814,518.036 344.314,520.369 343.5,522.5C 343.631,521.761 343.464,521.094 343,520.5C 342.507,523.985 341.007,524.485 338.5,522C 337.809,520.933 337.309,519.766 337,518.5C 336.646,520.807 335.646,521.141 334,519.5C 332.775,519.862 331.609,520.362 330.5,521C 331.451,521.718 331.617,522.551 331,523.5C 329.883,522.051 329.216,520.384 329,518.5C 326.667,521.5 325,521.167 324,517.5C 322.87,518.114 321.537,518.114 320,517.5C 318.674,517.755 317.674,518.422 317,519.5C 315.249,517.082 313.249,515.749 311,515.5C 310.333,516.167 309.667,516.833 309,517.5C 305.88,513.804 302.38,512.47 298.5,513.5C 299.167,514.167 299.833,514.833 300.5,515.5C 299.753,515.736 298.92,516.07 298,516.5C 294.538,516.017 294.038,514.85 296.5,513C 292.017,512.064 287.851,510.564 284,508.5C 280.649,514.164 277.982,513.831 276,507.5C 274.471,508.729 273.304,510.229 272.5,512C 273.744,512.456 274.577,511.956 275,510.5C 275.919,512.367 276.419,514.367 276.5,516.5C 279.68,515.064 281.18,516.064 281,519.5C 279.989,518.663 278.822,518.33 277.5,518.5C 277.5,519.5 277.5,520.5 277.5,521.5C 278.675,521.281 279.675,521.614 280.5,522.5C 281.093,524.382 281.76,526.215 282.5,528C 281.833,528.333 281.167,528.667 280.5,529C 282.119,529.236 283.119,530.069 283.5,531.5C 277.708,529.685 272.708,526.685 268.5,522.5C 267.738,520.738 266.404,519.738 264.5,519.5C 259.895,516.564 255.895,512.898 252.5,508.5C 247.833,501.833 242.167,496.167 235.5,491.5C 234.71,490.206 233.71,489.039 232.5,488C 234.228,488.353 235.894,488.519 237.5,488.5C 238.216,487.689 239.05,487.022 240,486.5C 241.646,488.141 242.646,487.807 243,485.5C 244.667,486.833 246.333,488.167 248,489.5C 251.178,490.203 254.178,490.203 257,489.5C 257.333,490.5 257.667,491.5 258,492.5C 258.894,489.608 260.56,487.274 263,485.5C 265.543,486.876 265.709,488.043 263.5,489C 264.629,491.168 266.129,491.668 268,490.5C 269.054,492.754 270.554,493.087 272.5,491.5C 276.339,492.721 276.339,493.388 272.5,493.5C 272.649,494.552 272.483,495.552 272,496.5C 271.346,495.304 270.846,495.304 270.5,496.5C 272.532,498.513 274.866,500.013 277.5,501C 276.572,501.388 275.905,502.055 275.5,503C 275.646,504.727 276.313,504.894 277.5,503.5C 278.167,504.5 278.833,505.5 279.5,506.5C 280.298,504.922 280.798,503.256 281,501.5C 281.57,504.844 282.736,505.177 284.5,502.5C 285.883,505.076 286.717,504.742 287,501.5C 288.705,502.763 290.372,503.097 292,502.5C 293.402,504.973 294.902,504.973 296.5,502.5C 297.668,504.801 299.168,506.134 301,506.5C 301.249,505.376 301.749,504.376 302.5,503.5C 305.028,504.498 305.028,505.331 302.5,506C 303.967,507.098 304.801,508.598 305,510.5C 306.38,507.942 307.88,507.942 309.5,510.5C 309.833,509.833 310.167,509.167 310.5,508.5C 311.333,509.5 312.167,510.5 313,511.5C 313.739,509.779 314.573,508.113 315.5,506.5C 315.533,507.989 316.033,509.322 317,510.5C 317.667,509.167 318.667,508.167 320,507.5C 322.947,509.308 326.114,510.808 329.5,512C 330.126,512.75 330.626,513.584 331,514.5C 331.615,512.884 332.615,511.551 334,510.5C 334.368,511.91 335.201,512.91 336.5,513.5C 336.489,512.559 336.989,511.892 338,511.5C 341.594,514.244 342.761,513.411 341.5,509C 343.9,505.203 344.9,501.037 344.5,496.5 Z"/></g>
<g><path style="opacity:1" fill="#269ff7" d="M 193.5,513.5 C 190.287,513.19 187.287,513.523 184.5,514.5C 181.14,514.616 177.807,514.949 174.5,515.5C 180.66,512.784 186.994,512.117 193.5,513.5 Z"/></g>
<g><path style="opacity:1" fill="#268fd1" d="M 184.5,514.5 C 187.287,513.523 190.287,513.19 193.5,513.5C 196.881,513.46 200.214,513.793 203.5,514.5C 207.075,516.287 210.741,518.121 214.5,520C 215.381,520.708 216.047,521.542 216.5,522.5C 206.83,516.082 196.163,513.416 184.5,514.5 Z"/></g>
<g><path style="opacity:1" fill="#1255d8" d="M 162.5,521.5 C 152.673,528.845 146.173,538.512 143,550.5C 138.343,541.696 135.176,532.363 133.5,522.5C 135.639,518.004 138.639,514.004 142.5,510.5C 143.251,511.376 143.751,512.376 144,513.5C 144.471,511.754 145.138,510.087 146,508.5C 146.49,509.793 146.657,511.127 146.5,512.5C 150.49,511.616 153.323,512.949 155,516.5C 156.079,514.606 157.413,514.273 159,515.5C 159.899,513.484 161.233,511.817 163,510.5C 163.309,511.766 163.809,512.933 164.5,514C 162.699,514.317 162.366,514.984 163.5,516C 162.207,516.49 160.873,516.657 159.5,516.5C 159.5,517.5 159.5,518.5 159.5,519.5C 160.873,519.343 162.207,519.51 163.5,520C 162.944,520.383 162.611,520.883 162.5,521.5 Z"/></g>
<g><path style="opacity:1" fill="#25b0ec" d="M 264.5,519.5 C 266.404,519.738 267.738,520.738 268.5,522.5C 266.596,522.262 265.262,521.262 264.5,519.5 Z"/></g>
<g><path style="opacity:1" fill="#1473e9" d="M 343.5,522.5 C 343.23,527.269 341.897,531.603 339.5,535.5C 338.791,536.404 337.791,536.737 336.5,536.5C 333.505,536.294 330.838,536.96 328.5,538.5C 322.173,539.182 315.839,539.348 309.5,539C 300.534,537.398 291.867,534.898 283.5,531.5C 283.119,530.069 282.119,529.236 280.5,529C 281.167,528.667 281.833,528.333 282.5,528C 281.76,526.215 281.093,524.382 280.5,522.5C 279.675,521.614 278.675,521.281 277.5,521.5C 277.5,520.5 277.5,519.5 277.5,518.5C 278.822,518.33 279.989,518.663 281,519.5C 281.18,516.064 279.68,515.064 276.5,516.5C 276.419,514.367 275.919,512.367 275,510.5C 274.577,511.956 273.744,512.456 272.5,512C 273.304,510.229 274.471,508.729 276,507.5C 277.982,513.831 280.649,514.164 284,508.5C 287.851,510.564 292.017,512.064 296.5,513C 294.038,514.85 294.538,516.017 298,516.5C 298.92,516.07 299.753,515.736 300.5,515.5C 299.833,514.833 299.167,514.167 298.5,513.5C 302.38,512.47 305.88,513.804 309,517.5C 309.667,516.833 310.333,516.167 311,515.5C 313.249,515.749 315.249,517.082 317,519.5C 317.674,518.422 318.674,517.755 320,517.5C 321.537,518.114 322.87,518.114 324,517.5C 325,521.167 326.667,521.5 329,518.5C 329.216,520.384 329.883,522.051 331,523.5C 331.617,522.551 331.451,521.718 330.5,521C 331.609,520.362 332.775,519.862 334,519.5C 335.646,521.141 336.646,520.807 337,518.5C 337.309,519.766 337.809,520.933 338.5,522C 341.007,524.485 342.507,523.985 343,520.5C 343.464,521.094 343.631,521.761 343.5,522.5 Z"/></g>
<g><path style="opacity:1" fill="#249fec" d="M 221.5,526.5 C 221.833,526.5 222.167,526.5 222.5,526.5C 228.5,531.833 234.167,537.5 239.5,543.5C 232.89,538.559 226.89,532.892 221.5,526.5 Z"/></g>
<g><path style="opacity:1" fill="#268bd5" d="M 346.5,488.5 C 348.359,504.376 347.026,520.042 342.5,535.5C 341.5,535.5 340.5,535.5 339.5,535.5C 341.897,531.603 343.23,527.269 343.5,522.5C 344.314,520.369 344.814,518.036 345,515.5C 345.5,508.174 345.666,500.841 345.5,493.5C 345.216,491.585 345.549,489.919 346.5,488.5 Z"/></g>
<g><path style="opacity:1" fill="#208de8" d="M 230.5,509.5 C 231.239,509.369 231.906,509.536 232.5,510C 242.062,519.729 251.728,529.229 261.5,538.5C 256.992,536.213 252.992,533.213 249.5,529.5C 243.117,522.786 236.784,516.12 230.5,509.5 Z"/></g>
<g><path style="opacity:1" fill="#2da3e1" d="M 283.5,531.5 C 291.867,534.898 300.534,537.398 309.5,539C 315.839,539.348 322.173,539.182 328.5,538.5C 312.624,542.261 297.624,539.928 283.5,531.5 Z"/></g>
<g><path style="opacity:1" fill="#2da3ea" d="M 336.5,536.5 C 334.162,538.04 331.495,538.706 328.5,538.5C 330.838,536.96 333.505,536.294 336.5,536.5 Z"/></g>
<g><path style="opacity:1" fill="#2291f0" d="M 268.5,543.5 C 286.37,554.274 305.704,558.274 326.5,555.5C 323.319,557.024 318.652,557.69 312.5,557.5C 296.102,557.81 281.435,553.143 268.5,543.5 Z"/></g>
<g><path style="opacity:1" fill="#279bee" d="M 241.5,545.5 C 244.089,546.419 246.089,548.086 247.5,550.5C 244.911,549.581 242.911,547.914 241.5,545.5 Z"/></g>
<g><path style="opacity:1" fill="#208df9" d="M 218.5,545.5 C 224.167,550.5 229.5,555.833 234.5,561.5C 228.167,557.167 222.833,551.833 218.5,545.5 Z"/></g>
<g><path style="opacity:1" fill="#34a1ea" d="M 330.5,558.5 C 331.405,557.036 331.405,555.702 330.5,554.5C 331.767,553.913 332.767,553.913 333.5,554.5C 332.965,556.261 331.965,557.594 330.5,558.5 Z"/></g>
<g><path style="opacity:1" fill="#1564e0" d="M 249.5,529.5 C 252.992,533.213 256.992,536.213 261.5,538.5C 264.117,539.786 266.45,541.453 268.5,543.5C 281.435,553.143 296.102,557.81 312.5,557.5C 318.652,557.69 323.319,557.024 326.5,555.5C 327.568,554.566 328.901,554.232 330.5,554.5C 331.405,555.702 331.405,557.036 330.5,558.5C 329.21,559.058 328.377,560.058 328,561.5C 327.667,561.167 327.333,560.833 327,560.5C 326.616,563.06 325.783,565.394 324.5,567.5C 322.413,568.585 321.08,570.251 320.5,572.5C 320.5,573.167 320.167,573.5 319.5,573.5C 310.812,573.587 302.146,573.253 293.5,572.5C 287.606,570.847 281.606,569.18 275.5,567.5C 264.609,564.251 255.276,558.584 247.5,550.5C 246.089,548.086 244.089,546.419 241.5,545.5C 240.5,545.167 239.833,544.5 239.5,543.5C 234.167,537.5 228.5,531.833 222.5,526.5C 222.47,525.503 222.97,524.836 224,524.5C 225.646,526.141 226.646,525.807 227,523.5C 227.359,526.544 228.026,526.878 229,524.5C 230.399,525.227 231.899,525.727 233.5,526C 232.833,526.667 232.167,527.333 231.5,528C 232.676,529.914 233.676,529.748 234.5,527.5C 237.417,528.066 240.417,528.066 243.5,527.5C 243.5,528.833 243.5,530.167 243.5,531.5C 246.205,531.38 246.872,532.38 245.5,534.5C 247.074,535.631 248.741,535.798 250.5,535C 249.594,533.301 249.261,531.467 249.5,529.5 Z"/></g>
<g><path style="opacity:1" fill="#2c86e4" d="M 330.5,558.5 C 329.277,562.049 327.277,565.049 324.5,567.5C 325.783,565.394 326.616,563.06 327,560.5C 327.333,560.833 327.667,561.167 328,561.5C 328.377,560.058 329.21,559.058 330.5,558.5 Z"/></g>
<g><path style="opacity:1" fill="#1e7fe2" d="M 234.5,561.5 C 238.146,563.817 241.48,566.484 244.5,569.5C 240.251,567.912 236.918,565.245 234.5,561.5 Z"/></g>
<g><path style="opacity:1" fill="#0f4dd3" d="M 254.5,609.5 C 252.585,609.216 250.919,609.549 249.5,610.5C 243.167,611.833 236.833,611.833 230.5,610.5C 221.506,609.005 212.506,607.005 203.5,604.5C 191.281,600.579 180.614,594.246 171.5,585.5C 169.833,583.167 167.833,581.167 165.5,579.5C 163.413,578.415 162.08,576.749 161.5,574.5C 159.05,565.903 158.884,557.236 161,548.5C 161.972,546.695 163.139,545.028 164.5,543.5C 165.478,543.977 166.311,544.643 167,545.5C 167.605,543.519 168.605,543.185 170,544.5C 171.617,543.464 171.784,542.297 170.5,541C 171.5,540.333 172.5,540.333 173.5,541C 172.742,542.364 173.242,543.531 175,544.5C 175.333,545.833 175.667,547.167 176,548.5C 177,549.833 178,549.833 179,548.5C 179.341,551.187 180.674,553.187 183,554.5C 183.333,553.5 183.667,552.5 184,551.5C 186.903,554.017 189.07,556.517 190.5,559C 192.081,559.707 193.581,560.54 195,561.5C 195.308,560.692 195.808,560.025 196.5,559.5C 196.833,560.167 197.167,560.833 197.5,561.5C 198.086,561.291 198.586,560.957 199,560.5C 199.456,561.744 198.956,562.577 197.5,563C 200.321,564.822 202.821,566.989 205,569.5C 206.73,567.398 208.563,567.565 210.5,570C 210.259,571.562 210.759,573.062 212,574.5C 213.333,573.833 214.667,573.167 216,572.5C 216.507,573.996 216.007,575.163 214.5,576C 215.572,577.284 216.905,577.617 218.5,577C 217.465,578.507 217.632,580.007 219,581.5C 220.488,579.18 222.321,579.013 224.5,581C 222.941,581.98 221.274,582.813 219.5,583.5C 220.729,584.281 222.062,584.781 223.5,585C 221,585.833 220.833,587 223,588.5C 224.016,587.366 224.683,587.699 225,589.5C 225.29,587.048 225.956,584.715 227,582.5C 228.576,581.987 229.909,582.654 231,584.5C 231.772,584.355 232.439,584.022 233,583.5C 234.852,585.23 234.686,586.396 232.5,587C 234.198,588.403 234.698,590.236 234,592.5C 235.667,595.167 237.333,595.167 239,592.5C 238.383,594.095 238.716,595.428 240,596.5C 240.483,595.552 240.649,594.552 240.5,593.5C 242.288,593.215 243.955,593.548 245.5,594.5C 245.167,595.167 244.833,595.833 244.5,596.5C 245.991,597.244 247.491,597.91 249,598.5C 249.281,600.905 248.615,600.905 247,598.5C 245.926,599.618 244.76,600.618 243.5,601.5C 244.689,602.429 246.022,602.762 247.5,602.5C 247.513,605.361 248.679,606.361 251,605.5C 251.483,606.448 251.649,607.448 251.5,608.5C 252.791,608.263 253.791,608.596 254.5,609.5 Z"/></g>
<g><path style="opacity:1" fill="#3096e4" d="M 324.5,567.5 C 323.92,569.749 322.587,571.415 320.5,572.5C 321.08,570.251 322.413,568.585 324.5,567.5 Z"/></g>
<g><path style="opacity:1" fill="#2ea0ef" d="M 275.5,567.5 C 281.606,569.18 287.606,570.847 293.5,572.5C 286.975,572.336 280.975,570.669 275.5,567.5 Z"/></g>
<g><path style="opacity:1" fill="#2b6faf" d="M 293.5,572.5 C 302.146,573.253 310.812,573.587 319.5,573.5C 316.351,574.165 313.018,574.498 309.5,574.5C 303.923,574.632 298.59,573.965 293.5,572.5 Z"/></g>
<g><path style="opacity:1" fill="#1256d8" d="M 218.5,545.5 C 222.833,551.833 228.167,557.167 234.5,561.5C 236.918,565.245 240.251,567.912 244.5,569.5C 247.667,572.777 251.334,575.61 255.5,578C 254.137,580.129 254.471,580.629 256.5,579.5C 257.77,580.562 258.937,581.562 260,582.5C 260.561,581.978 261.228,581.645 262,581.5C 266.706,583.606 271.539,585.273 276.5,586.5C 277.531,587.249 278.698,587.915 280,588.5C 280.311,589.742 279.811,590.742 278.5,591.5C 278.833,591.833 279.167,592.167 279.5,592.5C 282.401,591.841 283.901,590.841 284,589.5C 289.022,590.248 293.855,591.248 298.5,592.5C 298.027,593.906 297.027,594.573 295.5,594.5C 290.85,596.906 286.017,599.239 281,601.5C 280.055,601.095 279.388,600.428 279,599.5C 277.89,601.037 276.39,601.703 274.5,601.5C 274.719,602.675 274.386,603.675 273.5,604.5C 270.984,605.33 268.65,606.33 266.5,607.5C 262.476,608.038 258.476,608.705 254.5,609.5C 253.791,608.596 252.791,608.263 251.5,608.5C 251.649,607.448 251.483,606.448 251,605.5C 248.679,606.361 247.513,605.361 247.5,602.5C 246.022,602.762 244.689,602.429 243.5,601.5C 244.76,600.618 245.926,599.618 247,598.5C 248.615,600.905 249.281,600.905 249,598.5C 247.491,597.91 245.991,597.244 244.5,596.5C 244.833,595.833 245.167,595.167 245.5,594.5C 243.955,593.548 242.288,593.215 240.5,593.5C 240.649,594.552 240.483,595.552 240,596.5C 238.716,595.428 238.383,594.095 239,592.5C 237.333,595.167 235.667,595.167 234,592.5C 234.698,590.236 234.198,588.403 232.5,587C 234.686,586.396 234.852,585.23 233,583.5C 232.439,584.022 231.772,584.355 231,584.5C 229.909,582.654 228.576,581.987 227,582.5C 225.956,584.715 225.29,587.048 225,589.5C 224.683,587.699 224.016,587.366 223,588.5C 220.833,587 221,585.833 223.5,585C 222.062,584.781 220.729,584.281 219.5,583.5C 221.274,582.813 222.941,581.98 224.5,581C 222.321,579.013 220.488,579.18 219,581.5C 217.632,580.007 217.465,578.507 218.5,577C 216.905,577.617 215.572,577.284 214.5,576C 216.007,575.163 216.507,573.996 216,572.5C 214.667,573.167 213.333,573.833 212,574.5C 210.759,573.062 210.259,571.562 210.5,570C 208.563,567.565 206.73,567.398 205,569.5C 202.821,566.989 200.321,564.822 197.5,563C 198.956,562.577 199.456,561.744 199,560.5C 198.586,560.957 198.086,561.291 197.5,561.5C 197.167,560.833 196.833,560.167 196.5,559.5C 195.808,560.025 195.308,560.692 195,561.5C 193.581,560.54 192.081,559.707 190.5,559C 189.07,556.517 186.903,554.017 184,551.5C 183.667,552.5 183.333,553.5 183,554.5C 180.674,553.187 179.341,551.187 179,548.5C 178,549.833 177,549.833 176,548.5C 175.667,547.167 175.333,545.833 175,544.5C 173.242,543.531 172.742,542.364 173.5,541C 172.5,540.333 171.5,540.333 170.5,541C 171.784,542.297 171.617,543.464 170,544.5C 168.605,543.185 167.605,543.519 167,545.5C 166.311,544.643 165.478,543.977 164.5,543.5C 163.139,545.028 161.972,546.695 161,548.5C 158.884,557.236 159.05,565.903 161.5,574.5C 153.076,553.503 159.409,538.67 180.5,530C 196.324,527.658 208.99,532.825 218.5,545.5 Z"/></g>
<g><path style="opacity:1" fill="#1e71e0" d="M 244.5,569.5 C 254.603,576.218 265.27,581.885 276.5,586.5C 271.539,585.273 266.706,583.606 262,581.5C 261.228,581.645 260.561,581.978 260,582.5C 258.937,581.562 257.77,580.562 256.5,579.5C 254.471,580.629 254.137,580.129 255.5,578C 251.334,575.61 247.667,572.777 244.5,569.5 Z"/></g>
<g><path style="opacity:1" fill="#2473c2" d="M 165.5,579.5 C 167.833,581.167 169.833,583.167 171.5,585.5C 168.5,584.5 166.5,582.5 165.5,579.5 Z"/></g>
<g><path style="opacity:1" fill="#2275e6" d="M 276.5,586.5 C 284.734,588.428 293.068,589.928 301.5,591C 300.756,592.039 299.756,592.539 298.5,592.5C 293.855,591.248 289.022,590.248 284,589.5C 283.901,590.841 282.401,591.841 279.5,592.5C 279.167,592.167 278.833,591.833 278.5,591.5C 279.811,590.742 280.311,589.742 280,588.5C 278.698,587.915 277.531,587.249 276.5,586.5 Z"/></g>
<g><path style="opacity:1" fill="#2772df" d="M 295.5,594.5 C 286.87,600.941 277.204,605.274 266.5,607.5C 268.65,606.33 270.984,605.33 273.5,604.5C 274.386,603.675 274.719,602.675 274.5,601.5C 276.39,601.703 277.89,601.037 279,599.5C 279.388,600.428 280.055,601.095 281,601.5C 286.017,599.239 290.85,596.906 295.5,594.5 Z"/></g>
<g><path style="opacity:1" fill="#287dde" d="M 203.5,604.5 C 212.506,607.005 221.506,609.005 230.5,610.5C 220.95,610.527 211.95,608.527 203.5,604.5 Z"/></g>
<g><path style="opacity:1" fill="#2881d9" d="M 266.5,607.5 C 261.203,609.874 255.537,610.874 249.5,610.5C 250.919,609.549 252.585,609.216 254.5,609.5C 258.476,608.705 262.476,608.038 266.5,607.5 Z"/></g>
</svg>
