<?xml version="1.0" encoding="UTF-8"?>
<svg xmlns="http://www.w3.org/2000/svg" version="1.1" width="200" height="200" viewBox="130 380 220 240">
<rect x="130" y="380" width="220" height="240" fill="#1f2937"/>
<g><path style="opacity:1" fill="#1299f8" d="M 251.5,392.5 C 258.952,392.792 265.952,394.458 272.5,397.5C 271.262,397.81 271.262,398.31 272.5,399C 282.302,402.406 291.635,406.573 300.5,411.5C 306.323,416.693 312.156,422.026 318,427.5C 320.172,431.149 322.839,434.482 326,437.5C 328.78,442.062 331.28,446.728 333.5,451.5C 332.596,452.209 332.263,453.209 332.5,454.5C 331.07,454.421 329.736,454.754 328.5,455.5C 327.713,454.758 327.047,453.925 326.5,453C 326.616,451.732 326.949,450.398 327.5,449C 326.551,448.383 325.718,448.549 325,449.5C 324.89,446.354 323.557,445.354 321,446.5C 320.026,444.122 319.359,444.456 319,447.5C 317.184,446.671 315.351,445.837 313.5,445C 313.833,444.667 314.167,444.333 314.5,444C 313.333,443.5 312.5,442.667 312,441.5C 310.667,442.167 309.333,442.833 308,443.5C 305.163,441.243 302.83,441.243 301,443.5C 299.541,440.557 297.874,440.224 296,442.5C 295.735,440.837 296.235,439.337 297.5,438C 295.409,436.325 293.242,435.825 291,436.5C 290.751,435.376 290.251,434.376 289.5,433.5C 287.999,434.752 286.332,435.752 284.5,436.5C 283.749,435.624 283.249,434.624 283,433.5C 282.586,433.957 282.086,434.291 281.5,434.5C 280.719,433.271 280.219,431.938 280,430.5C 279.667,432.5 279.333,434.5 279,436.5C 277.933,435.057 276.766,433.724 275.5,432.5C 276.376,431.749 277.376,431.249 278.5,431C 277.584,430.626 276.75,430.126 276,429.5C 274.204,430.767 272.371,430.767 270.5,429.5C 269.201,430.09 268.368,431.09 268,432.5C 267.313,430.445 266.146,428.779 264.5,427.5C 263.224,432.682 262.557,432.682 262.5,427.5C 260.61,427.297 259.11,427.963 258,429.5C 257.097,428.299 255.931,427.465 254.5,427C 254.833,426.667 255.167,426.333 255.5,426C 254.377,424.956 253.044,424.29 251.5,424C 256.206,424.226 257.039,423.059 254,420.5C 252.126,422.776 250.459,422.443 249,419.5C 248.333,422.167 247.667,422.167 247,419.5C 246.333,420.833 245.667,420.833 245,419.5C 244.779,422.943 243.779,423.276 242,420.5C 240.129,421.668 238.629,421.168 237.5,419C 239.5,419 241.5,419C 243.5,419C 245.158,418.275 245.658,417.108 245,415.5C 244.333,416.833 243.333,417.833 242,418.5C 239.429,417.755 236.929,417.421 234.5,417.5C 233.833,418.167 233.167,418.833 232.5,419.5C 228.282,418.507 226.448,416.174 227,412.5C 225.384,413.545 223.717,414.545 222,415.5C 220.148,413.77 220.314,412.604 222.5,412C 221.299,411.097 220.465,409.931 220,408.5C 218.284,409.552 217.284,408.886 217,406.5C 215.951,407.517 214.784,407.684 213.5,407C 216.228,406.361 216.728,405.194 215,403.5C 213.266,404.638 211.432,405.138 209.5,405C 210.167,404 210.833,403 211.5,402C 208.933,401.264 207.433,400.097 207,398.5C 205.233,400.164 205.733,401.331 208.5,402C 205.528,405.293 204.028,404.459 204,399.5C 203.667,400.5 203.333,401.5 203,402.5C 200.519,404.458 197.853,406.125 195,407.5C 194.617,406.944 194.117,406.611 193.5,406.5C 192.504,406.414 191.671,406.748 191,407.5C 190.692,406.692 190.192,406.025 189.5,405.5C 185.525,407.499 181.859,409.832 178.5,412.5C 174.859,414.795 171.192,417.128 167.5,419.5C 181.81,405.844 198.81,397.177 218.5,393.5C 219.622,394.156 220.955,394.489 222.5,394.5C 232.328,393.938 241.995,393.271 251.5,392.5 Z"/></g>
<g><path style="opacity:1" fill="#23a6ed" d="M 300.5,411.5 C 318.935,423.45 332.101,439.783 340,460.5C 342.939,467.921 344.772,475.588 345.5,483.5C 345.657,484.873 345.49,486.207 345,487.5C 344.178,481.511 342.678,475.844 340.5,470.5C 340.483,468.435 340.15,466.435 339.5,464.5C 338.258,459.755 336.258,455.421 333.5,451.5C 331.28,446.728 328.78,442.062 326,437.5C 322.839,434.482 320.172,431.149 318,427.5C 312.156,422.026 306.323,416.693 300.5,411.5 Z"/></g>
<g><path style="opacity:1" fill="#0f8cf4" d="M 193.5,406.5 C 192.491,407.939 192.824,409.272 194.5,410.5C 195.696,410.154 195.696,409.654 194.5,409C 195.833,408.333 197.167,408.333 198.5,409C 198.167,409.333 197.833,409.667 197.5,410C 199.305,410.972 200.972,412.139 202.5,413.5C 202.998,412.397 203.331,411.397 203.5,410.5C 204.298,412.078 204.798,413.744 205,415.5C 205.483,414.552 205.649,413.552 205.5,412.5C 207.58,413.044 209.58,413.878 211.5,415C 210.833,415.333 210.167,415.667 209.5,416C 210.257,417.512 211.257,418.846 212.5,420C 213.744,420.456 214.577,419.956 215,418.5C 216.224,421.473 218.224,422.14 221,420.5C 222.067,421.191 223.234,421.691 224.5,422C 224.167,422.333 223.833,422.667 223.5,423C 224.5,423.833 225.5,424.667 226.5,425.5C 225.145,426.675 225.312,427.675 227,428.5C 227.691,426.109 228.691,426.109 230,428.5C 231.085,427.707 232.252,427.04 233.5,426.5C 235.135,427.33 236.802,427.497 238.5,427C 237.272,427.779 236.272,428.779 235.5,430C 236.861,431.927 237.694,434.094 238,436.5C 238.483,435.552 238.649,434.552 238.5,433.5C 240.451,433.227 241.951,433.893 243,435.5C 243.333,434.833 243.667,434.167 244,433.5C 245.751,435.49 246.751,437.823 247,440.5C 247.374,439.584 247.874,438.75 248.5,438C 250.075,438.379 251.575,438.212 253,437.5C 253.617,438.449 253.451,439.282 252.5,440C 254.933,440.766 256.766,442.266 258,444.5C 258.414,444.043 258.914,443.709 259.5,443.5C 260.711,444.274 260.711,445.107 259.5,446C 260.449,446.617 261.282,446.451 262,445.5C 262.652,447.723 264.152,448.89 266.5,449C 265.007,450.156 265.174,450.99 267,451.5C 268.843,448.262 271.01,447.929 273.5,450.5C 276.099,446.359 276.765,446.526 275.5,451C 276.766,451.309 277.933,451.809 279,452.5C 279.333,452.167 279.667,451.833 280,451.5C 280.249,452.624 280.749,453.624 281.5,454.5C 281.736,453.753 282.07,452.92 282.5,452C 283.449,451.383 284.282,451.549 285,452.5C 285.333,451.833 285.667,451.167 286,450.5C 287.264,454.011 289.097,454.178 291.5,451C 290.833,450.667 290.167,450.333 289.5,450C 292.379,447.667 294.379,448.167 295.5,451.5C 295.023,452.478 294.357,453.311 293.5,454C 295.604,456.238 297.938,457.238 300.5,457C 300.167,457.333 299.833,457.667 299.5,458C 300.833,458.667 302.167,459.333 303.5,460C 302.269,461.183 302.269,462.349 303.5,463.5C 304.192,462.975 304.692,462.308 305,461.5C 306.915,466.788 307.582,466.788 307,461.5C 308,462.833 309,462.833 310,461.5C 310.456,462.744 309.956,463.577 308.5,464C 309.5,464.5 310.5,465 311.5,465.5C 313.337,461.723 315.004,461.723 316.5,465.5C 320.68,463.273 324.18,464.273 327,468.5C 328.008,468.018 329.175,467.852 330.5,468C 330.167,467.667 329.833,467.333 329.5,467C 330.46,465.581 331.293,464.081 332,462.5C 332.595,463.899 332.428,465.232 331.5,466.5C 332,466.833 332.5,467.167 333,467.5C 334.416,466.427 335.75,466.427 337,467.5C 337.617,466.551 337.451,465.718 336.5,465C 337.448,464.517 338.448,464.351 339.5,464.5C 340.15,466.435 340.483,468.435 340.5,470.5C 340.357,472.262 340.691,473.929 341.5,475.5C 340.758,476.287 339.925,476.953 339,477.5C 337.951,476.483 336.784,476.316 335.5,477C 335.957,477.414 336.291,477.914 336.5,478.5C 334.929,480.882 334.096,483.549 334,486.5C 330.406,485.504 326.573,484.17 322.5,482.5C 320.613,484.133 319.113,483.8 318,481.5C 318,482.833 318,484.167 318,485.5C 316.883,484.051 316.216,482.384 316,480.5C 315.047,482.592 313.714,482.925 312,481.5C 311.667,482.167 311.333,482.833 311,483.5C 309.667,479.5 308.333,479.5 307,483.5C 306.28,481.888 306.446,480.388 307.5,479C 305.578,477.54 304.911,475.873 305.5,474C 304.354,473.355 303.354,472.522 302.5,471.5C 300.833,470.167 299.167,470.167 297.5,471.5C 296.749,472.376 296.249,473.376 296,474.5C 293.686,471.974 291.853,469.641 290.5,467.5C 288.941,468.074 287.441,468.74 286,469.5C 283.834,467.879 281.334,467.045 278.5,467C 281.167,466.333 281.167,465.667 278.5,465C 280.271,464.465 280.604,463.631 279.5,462.5C 278.575,463.641 277.741,463.641 277,462.5C 276.383,463.449 276.549,464.282 277.5,465C 276.146,466.294 274.812,466.46 273.5,465.5C 272.808,466.025 272.308,466.692 272,467.5C 269.674,465.953 268.507,464.119 268.5,462C 266.633,461.289 265.133,461.789 264,463.5C 263.464,461.131 262.297,459.131 260.5,457.5C 260.089,458.262 259.923,459.262 260,460.5C 258.5,458.667 257,456.833 255.5,455C 255.833,454.667 256.167,454.333 256.5,454C 255.167,454.667 253.833,455.333 252.5,456C 250.384,454.829 249.718,453.329 250.5,451.5C 249.227,448.217 247.727,448.551 246,452.5C 244.343,449.644 242.343,446.978 240,444.5C 239.531,446.108 238.865,447.775 238,449.5C 236.333,447.5 234.667,445.5 233,443.5C 232.692,444.308 232.192,444.975 231.5,445.5C 230.673,443.838 229.507,442.505 228,441.5C 228.875,443.311 229.209,445.311 229,447.5C 227.013,446.782 225.179,445.782 223.5,444.5C 222.158,446.005 220.492,446.672 218.5,446.5C 218.669,441.959 218.002,441.626 216.5,445.5C 216.847,443.86 216.347,442.193 215,440.5C 214.586,440.957 214.086,441.291 213.5,441.5C 212.185,439.684 210.685,438.017 209,436.5C 208.683,438.301 208.016,438.634 207,437.5C 206.689,436.258 207.189,435.258 208.5,434.5C 206.892,433.758 205.225,433.591 203.5,434C 204.833,432.667 206.167,431.333 207.5,430C 206.324,428.086 205.324,428.252 204.5,430.5C 202.142,428.976 200.309,426.976 199,424.5C 198.667,425.167 198.333,425.833 198,426.5C 197.558,424.321 196.558,423.655 195,424.5C 194.833,424.167 194.667,423.833 194.5,423.5C 195.376,422.749 196.376,422.249 197.5,422C 196.747,420.513 195.914,420.346 195,421.5C 194.667,420.833 194.333,420.167 194,419.5C 192.783,420.386 191.449,421.386 190,422.5C 188.176,422.024 186.676,420.524 185.5,418C 184.167,418 182.833,418 181.5,418C 181.12,415.674 180.12,413.841 178.5,412.5C 181.859,409.832 185.525,407.499 189.5,405.5C 190.192,406.025 190.692,406.692 191,407.5C 191.671,406.748 192.504,406.414 193.5,406.5 Z"/></g>
</svg> 