<?xml version="1.0" encoding="UTF-8"?>
<svg width="24" height="24" viewBox="0 0 24 24" fill="none" xmlns="http://www.w3.org/2000/svg">
  <path d="M12 24C18.6274 24 24 18.6274 24 12C24 5.37258 18.6274 0 12 0C5.37258 0 0 5.37258 0 12C0 18.6274 5.37258 24 12 24Z" fill="#F0B90B"/>
  <path d="M12 6L14.595 8.595L9.405 13.785L6.81 11.19L12 6Z" fill="white"/>
  <path d="M14.595 15.165L12 17.76L9.405 15.165L14.595 9.975L17.19 12.57L14.595 15.165Z" fill="white"/>
  <path d="M17.19 11.19L14.595 8.595L17.19 6L19.785 8.595L17.19 11.19Z" fill="white"/>
  <path d="M6.81 15.165L9.405 17.76L6.81 20.355L4.215 17.76L6.81 15.165Z" fill="white"/>
  <path d="M12 11.19L14.595 13.785L12 16.38L9.405 13.785L12 11.19Z" fill="white"/>
</svg> 