<?xml version="1.0" encoding="UTF-8"?>
<svg width="24" height="24" viewBox="0 0 40 40" fill="none" xmlns="http://www.w3.org/2000/svg">
  <circle cx="20" cy="20" r="20" fill="#FF0420"/>
  <path d="M17.0048 30.3788c-1.42903 0-2.59991-0.336227-3.51255-1.00873c-0.900663-0.684481-1.35099-1.65719-1.35099-2.91813c0-0.264183 0.0299883-0.588435 0.0900574-0.972709c0.156114-0.864641 0.378285-1.90341 0.666468-3.1163c0.816595-3.30244 2.92416-4.95364 6.32265-4.95364c0.924709 0 1.75328 0.156114 2.48585 0.468342c0.732527 0.300206 1.30894 0.756526 1.72924 1.36901c0.420342 0.600457 0.630491 1.32096 0.630491 2.1616c0 0.252159-0.0300345 0.570422-0.0900582 0.954696c-0.18016 1.06876-0.396296 2.10752-0.648502 3.1163c-0.420297 1.64521-1.14683 2.87611-2.17961 3.69271c-1.03273 0.804572-2.41376 1.20686-4.14304 1.20686ZM17.257 27.7849c0.672503 0 1.24293-0.198171 1.71127-0.594469c0.480321-0.396251 0.822583-1.0027 1.02674-1.81934c0.276205-1.12882 0.486354-2.11355 0.630444-2.95415c0.0480469-0.252206 0.0720459-0.5104 0.0720459-0.774583c0-1.0928-0.570377-1.63918-1.71122-1.63918c-0.672503 0-1.24892 0.198125-1.72928 0.594423c-0.468342 0.396296-0.804616 1.00274-1.00873 1.81934c-0.216181 0.804571-0.432319 1.7893-0.648502 2.95415c-0.0480451 0.240184-0.0720459 0.49239-0.0720459 0.756573c0 1.10482 0.576411 1.65723 1.72928 1.65723ZM24.8931 30.1987c-0.132115 0-0.234195-0.0420131-0.306241-0.126081c-0.060022-0.0960903-0.0780343-0.204161-0.0540336-0.32425l2.48585-11.7086c0.0240008-0.132068 0.0900582-0.240182 0.198127-0.32425c0.108069-0.0840227 0.222172-0.126081 0.342263-0.126081h4.7915c1.33298 0 2.40178 0.276207 3.20635 0.828617c0.816595 0.552412 1.22491 1.351 1.22491 2.39575c0 0.300251-0.0360212 0.612479-0.108067 0.936686c-0.300206 1.38103-0.906651 2.40178-1.81934 3.06226c-0.900663 0.660479-2.1376 0.990719-3.71072 0.990719h-2.43182l-0.828618 3.94491c-0.023999 0.132115-0.0900565 0.240182-0.198125 0.32425s-0.222172 0.126081-0.342263 0.126081h-2.44978ZM31.2698 23.3176c0.504363 0 0.942672-0.138103 1.31497-0.414308c0.384274-0.276207 0.636482-0.672503 0.756571-1.18889c0.0360247-0.204116 0.0540353-0.384276 0.0540353-0.54039c0-0.348251-0.102079-0.612434-0.30624-0.792594c-0.204161-0.192137-0.55241-0.288184-1.04475-0.288184h-2.1616l-0.684525 3.22437h2.07154Z" fill="#fff"/>
</svg> 