<?xml version="1.0" encoding="UTF-8"?>
<svg width="24" height="24" viewBox="0 0 24 24" fill="none" xmlns="http://www.w3.org/2000/svg">
    <path d="M12 24C18.6274 24 24 18.6274 24 12C24 5.37258 18.6274 0 12 0C5.37258 0 0 5.37258 0 12C0 18.6274 5.37258 24 12 24Z" fill="#8247E5"/>
    <path d="M15.9075 9.225C15.555 9.0225 15.0675 9.0225 14.685 9.225L12.615 10.425L11.1675 11.22L9.0975 12.42C8.745 12.6225 8.2575 12.6225 7.875 12.42L6.2325 11.475C5.88 11.2725 5.625 10.8975 5.625 10.485V8.6325C5.625 8.22 5.85 7.845 6.2325 7.6425L7.845 6.7275C8.1975 6.525 8.685 6.525 9.0675 6.7275L10.68 7.6425C11.0325 7.845 11.2875 8.22 11.2875 8.6325V9.8325L12.735 9.0375V7.8075C12.735 7.395 12.51 7.02 12.1275 6.8175L9.0975 5.0925C8.745 4.89 8.2575 4.89 7.875 5.0925L4.7775 6.8475C4.395 7.05 4.17 7.425 4.17 7.8375V11.28C4.17 11.6925 4.395 12.0675 4.7775 12.27L7.875 14.025C8.2275 14.2275 8.715 14.2275 9.0975 14.025L11.1675 12.825L12.615 12.03L14.685 10.83C15.0375 10.6275 15.525 10.6275 15.9075 10.83L17.52 11.745C17.8725 11.9475 18.1275 12.3225 18.1275 12.735V14.5875C18.1275 15 17.9025 15.375 17.52 15.5775L15.9075 16.4925C15.555 16.695 15.0675 16.695 14.685 16.4925L13.0725 15.5775C12.72 15.375 12.465 15 12.465 14.5875V13.3875L11.0175 14.1825V15.4125C11.0175 15.825 11.2425 16.2 11.625 16.4025L14.685 18.1275C15.0375 18.33 15.525 18.33 15.9075 18.1275L19.005 16.4025C19.3575 16.2 19.6125 15.825 19.6125 15.4125V11.97C19.6125 11.5575 19.3875 11.1825 19.005 10.98L15.9075 9.225Z" fill="white"/>
</svg> 